<svg xmlns="http://www.w3.org/2000/svg" viewBox="0 0 4912 2760"><filter id="b"><feGaussianBlur stdDeviation="12" /></filter><path d="M0 0h4912v2760H0z" fill="#b09b8c" /><g filter="url(#b)" transform="scale(19.187500) translate(0.5 0.5)"><ellipse fill="#fff" fill-opacity=".501961" cx="199" cy="16" rx="66" ry="66" /><g transform="translate(101.537285 104.228383) rotate(117.639151) scale(83.615882 36.379366)"><ellipse fill="#6e4d00" fill-opacity=".501961" cx="0" cy="0" rx="1" ry="1" /></g><g transform="translate(250.471445 118.030020) rotate(142.196186) scale(89.711224 34.582656)"><ellipse fill="#2b1f40" fill-opacity=".501961" cx="0" cy="0" rx="1" ry="1" /></g><g transform="translate(66.168752 24.697457) rotate(172.315830) scale(115.538100 27.752226)"><ellipse fill="#ece2e3" fill-opacity=".501961" cx="0" cy="0" rx="1" ry="1" /></g><path fill="#5a2e00" fill-opacity=".501961" d="M133 143 118 61 28 60z" /><ellipse fill="#9ea600" fill-opacity=".501961" cx="127" cy="62" rx="18" ry="44" /><g transform="translate(246.622111 33.358067) rotate(167.424413) scale(26.261366 42.901945)"><ellipse fill="#fcffff" fill-opacity=".501961" cx="0" cy="0" rx="1" ry="1" /></g><g transform="translate(0.000000 122.953055) rotate(56.476112) scale(36.941596 35.984306)"><ellipse fill="#864940" fill-opacity=".501961" cx="0" cy="0" rx="1" ry="1" /></g></g></svg>