<svg xmlns="http://www.w3.org/2000/svg" viewBox="0 0 4912 2760"><filter id="b"><feGaussianBlur stdDeviation="12" /></filter><path d="M0 0h4912v2760H0z" fill="#797358" /><g filter="url(#b)" transform="scale(19.187500) translate(0.5 0.5)"><path fill="#fdfeeb" fill-opacity=".501961" d="M81.192624 49.912076 66.011142-1.776776 95.156272 42.530196 114.585066 98.47485z" /><g transform="translate(153.333381 21.843349) rotate(339.914005) scale(10.570526 70.397590)"><ellipse fill="#e1e1ca" fill-opacity=".501961" cx="0" cy="0" rx="1" ry="1" /></g><g transform="translate(95.739996 6.127912) rotate(154.638444) scale(7.272911 51.086373)"><ellipse fill="#f4f4e2" fill-opacity=".501961" cx="0" cy="0" rx="1" ry="1" /></g><g transform="translate(233 10) rotate(96) scale(42 19)"><path d="M0 0h4912v2760H0z" fill="#f0f1e6" /></g><path fill="#211b0a" fill-opacity=".501961" d="M264.032674 149.987123 212.817326 158 260.712562 80.361857 269.62338 70.785923z" /><g transform="translate(152.553575 97.011513) rotate(77.283198) scale(75.697543 17.782260)"><ellipse fill="#584c2d" fill-opacity=".501961" cx="0" cy="0" rx="1" ry="1" /></g><path fill="#483f25" fill-opacity=".501961" d="M-11 140 32 76l29 82z" /><g transform="translate(42.362260 7.982164) rotate(10.170617) scale(9.676448 7.665668)"><ellipse fill="#fdfff2" fill-opacity=".501961" cx="0" cy="0" rx="1" ry="1" /></g></g></svg>