<svg xmlns="http://www.w3.org/2000/svg" viewBox="0 0 4912 2760"><filter id="b"><feGaussianBlur stdDeviation="12" /></filter><path d="M0 0h4912v2760H0z" fill="#5284ce" /><g filter="url(#b)" transform="scale(19.187500) translate(0.5 0.5)"><g transform="translate(112.523768 27.565046) rotate(91.393003) scale(42.045235 165.737434)"><ellipse fill="#e1f0fa" fill-opacity=".501961" cx="0" cy="0" rx="1" ry="1" /></g><g transform="translate(128.344421 111.171962) rotate(-90.076139) scale(42.485505 255.000000)"><ellipse fill="#0025aa" fill-opacity=".501961" cx="0" cy="0" rx="1" ry="1" /></g><ellipse fill="#002799" fill-opacity=".501961" cx="17" cy="109" rx="42" ry="42" /><ellipse fill="#002ea6" fill-opacity=".501961" cx="240" cy="107" rx="50" ry="40" /><g transform="translate(115.934434 8.486258) rotate(-39.509174) scale(51.486399 71.276960)"><ellipse fill="#b8d5f5" fill-opacity=".501961" cx="0" cy="0" rx="1" ry="1" /></g><g transform="translate(124.668382 111.835916) rotate(177.402445) scale(88.348110 44.139310)"><ellipse fill="#0c6fd0" fill-opacity=".501961" cx="0" cy="0" rx="1" ry="1" /></g><path d="M0 0h4912v2760H0z" fill="#6b95ca" /><path fill="#c0d9e4" fill-opacity=".501961" d="M205 78 191 63l-7 19z" /></g></svg>