<svg xmlns="http://www.w3.org/2000/svg" viewBox="0 0 4822 2709"><filter id="b"><feGaussianBlur stdDeviation="12" /></filter><path d="M0 0h4822v2709H0z" fill="#918d7a" /><g filter="url(#b)" transform="scale(18.835938) translate(0.5 0.5)"><g transform="translate(112.274964 129.710174) rotate(2.364163) scale(254.747767 25.087826)"><ellipse fill="#4b0e00" fill-opacity=".501961" cx="0" cy="0" rx="1" ry="1" /></g><ellipse fill="#aed2d6" fill-opacity=".501961" cx="110" cy="22" rx="190" ry="49" /><g transform="translate(143.875793 91.146178) rotate(183.316363) scale(93.535259 7.574885)"><ellipse fill="#e3eddd" fill-opacity=".501961" cx="0" cy="0" rx="1" ry="1" /></g><ellipse fill="#793500" fill-opacity=".501961" cx="105" cy="76" rx="255" ry="5" /><g transform="translate(126.726585 138.629161) rotate(362.087661) scale(232.248321 15.300292)"><ellipse fill="#572d00" fill-opacity=".501961" cx="0" cy="0" rx="1" ry="1" /></g><g transform="translate(48.601412 7.124948) rotate(355.275133) scale(196.762157 24.434198)"><ellipse fill="#6ba1c2" fill-opacity=".501961" cx="0" cy="0" rx="1" ry="1" /></g><g transform="translate(121.919290 107.200585) rotate(362.017276) scale(205.701275 8.475674)"><ellipse fill="#937943" fill-opacity=".501961" cx="0" cy="0" rx="1" ry="1" /></g><g transform="translate(163.996412 36.191064) rotate(-15.697140) scale(108.338173 18.926537)"><ellipse fill="#c9c09f" fill-opacity=".501961" cx="0" cy="0" rx="1" ry="1" /></g></g></svg>