<svg xmlns="http://www.w3.org/2000/svg" viewBox="0 0 1148 2042"><filter id="b"><feGaussianBlur stdDeviation="12" /></filter><path d="M0 0h1148v2042H0z" fill="#865656" /><g filter="url(#b)" transform="scale(7.976562) translate(0.5 0.5)"><g transform="translate(68.120654 18.346983) rotate(165.792211) scale(85.549887 62.076804)"><ellipse fill="#003bbe" fill-opacity=".501961" cx="0" cy="0" rx="1" ry="1" /></g><g transform="translate(47.376863 195.735372) rotate(250.321348) scale(128.728929 62.271595)"><ellipse fill="#ff9252" fill-opacity=".501961" cx="0" cy="0" rx="1" ry="1" /></g><g transform="translate(138.736631 148.101686) rotate(84.112426) scale(109.990904 37.078421)"><ellipse fill="#520000" fill-opacity=".501961" cx="0" cy="0" rx="1" ry="1" /></g><ellipse fill="#004c98" fill-opacity=".501961" cx="57" cy="21" rx="64" ry="64" /><ellipse fill="#ed9e8c" fill-opacity=".501961" cx="16" cy="138" rx="55" ry="55" /><g transform="translate(57.726550 251.617029) rotate(177.482261) scale(74.786001 54.252313)"><ellipse fill="#f74d19" fill-opacity=".501961" cx="0" cy="0" rx="1" ry="1" /></g><g transform="translate(124 185) rotate(68) scale(143 31)"><path d="M0 0h1148v2042H0z" fill="#580c00" /></g><g transform="translate(98.488663 94.451417) rotate(201.046427) scale(19.700342 36.791153)"><ellipse fill="#b14a23" fill-opacity=".501961" cx="0" cy="0" rx="1" ry="1" /></g></g></svg>