<svg xmlns="http://www.w3.org/2000/svg" viewBox="0 0 4912 2760"><filter id="b"><feGaussianBlur stdDeviation="12" /></filter><path d="M0 0h4912v2760H0z" fill="#181e0a" /><g filter="url(#b)" transform="scale(19.187500) translate(0.5 0.5)"><g transform="translate(134.461928 66.339148) rotate(185.927030) scale(63.996975 23.190087)"><ellipse fill="#ffff69" fill-opacity=".501961" cx="0" cy="0" rx="1" ry="1" /></g><g transform="translate(222.841667 28.661005) rotate(35.214922) scale(105.712480 47.211995)"><ellipse fill="#000" fill-opacity=".501961" cx="0" cy="0" rx="1" ry="1" /></g><g transform="translate(105 70) rotate(351) scale(57 51)"><path d="M0 0h4912v2760H0z" fill="#96bd40" /></g><ellipse fill="#000" fill-opacity=".501961" cx="59" cy="22" rx="115" ry="27" /><g transform="translate(155.833157 127.618580) rotate(264.758309) scale(39.479374 134.819409)"><ellipse fill="#000" fill-opacity=".501961" cx="0" cy="0" rx="1" ry="1" /></g><path fill="#eefe86" fill-opacity=".501961" d="M134 43l-8 22 69-1z" /><path fill="#ffffd0" fill-opacity=".501961" d="M99 50l25-10-12 20z" /><g transform="translate(30.555827 38.200875) rotate(113.329139) scale(150.509090 38.311469)"><ellipse fill="#000" fill-opacity=".501961" cx="0" cy="0" rx="1" ry="1" /></g></g></svg>