<svg xmlns="http://www.w3.org/2000/svg" viewBox="0 0 1151 2048"><filter id="b"><feGaussianBlur stdDeviation="12" /></filter><path d="M0 0h1151v2048H0z" fill="#a11432" /><g filter="url(#b)" transform="scale(8.000000) translate(0.5 0.5)"><g transform="translate(30.674962 77.034386) rotate(97.912188) scale(53.367385 143.000000)"><ellipse fill="#ff2d7b" fill-opacity=".501961" cx="0" cy="0" rx="1" ry="1" /></g><g transform="translate(86.914599 210.755355) rotate(73.493725) scale(61.094494 143.000000)"><ellipse fill="#2a0600" fill-opacity=".501961" cx="0" cy="0" rx="1" ry="1" /></g><g transform="translate(48.674988 106.613582) rotate(2.413027) scale(137.332710 22.757874)"><ellipse fill="#ff446a" fill-opacity=".501961" cx="0" cy="0" rx="1" ry="1" /></g><ellipse fill="#0c0b04" fill-opacity=".501961" cx="63" cy="253" rx="90" ry="33" /><ellipse fill="#990c06" fill-opacity=".501961" cx="66" cy="171" rx="75" ry="43" /><g transform="translate(80.928136 40.091384) rotate(199.241735) scale(134.750843 26.325544)"><ellipse fill="#bd0048" fill-opacity=".501961" cx="0" cy="0" rx="1" ry="1" /></g><g transform="translate(122.484813 8.106179) rotate(208.647106) scale(115.699318 24.524376)"><ellipse fill="#7e0046" fill-opacity=".501961" cx="0" cy="0" rx="1" ry="1" /></g><g transform="translate(143.000000 226.357637) rotate(286.997481) scale(7.201991 73.982460)"><ellipse fill="#c10c02" fill-opacity=".501961" cx="0" cy="0" rx="1" ry="1" /></g></g></svg>