<svg xmlns="http://www.w3.org/2000/svg" viewBox="0 0 4128 2322"><filter id="b"><feGaussianBlur stdDeviation="12" /></filter><path d="M0 0h4128v2322H0z" fill="#615639" /><g filter="url(#b)" transform="scale(16.125000) translate(0.5 0.5)"><g transform="translate(219.321022 20.931183) rotate(282.413795) scale(37.009443 140.435688)"><ellipse fill="#fff" fill-opacity=".501961" cx="0" cy="0" rx="1" ry="1" /></g><g transform="translate(44.450056 91.744862) rotate(436.940266) scale(255.000000 56.667616)"><ellipse fill="#000" fill-opacity=".501961" cx="0" cy="0" rx="1" ry="1" /></g><g transform="translate(144.110036 67.279661) rotate(142.241106) scale(59.758758 36.985841)"><ellipse fill="#ec9c1d" fill-opacity=".501961" cx="0" cy="0" rx="1" ry="1" /></g><g transform="translate(227.265661 9.946397) rotate(292.217035) scale(29.471359 71.624068)"><ellipse fill="#fff" fill-opacity=".501961" cx="0" cy="0" rx="1" ry="1" /></g><g transform="translate(89.114694 127.362794) rotate(2.491116) scale(206.897950 23.646442)"><ellipse fill="#000" fill-opacity=".501961" cx="0" cy="0" rx="1" ry="1" /></g><g transform="translate(227.124197 72.186055) rotate(124.068407) scale(20.617364 95.037124)"><ellipse fill="#948267" fill-opacity=".501961" cx="0" cy="0" rx="1" ry="1" /></g><g transform="translate(35.383586 78.951781) rotate(136.327869) scale(76.434630 52.466815)"><ellipse fill="#000600" fill-opacity=".501961" cx="0" cy="0" rx="1" ry="1" /></g><g transform="translate(125 9) rotate(249) scale(52 52)"><path d="M0 0h4128v2322H0z" fill="#e4decb" /></g></g></svg>