<svg xmlns="http://www.w3.org/2000/svg" viewBox="0 0 2760 4912"><filter id="b"><feGaussianBlur stdDeviation="12" /></filter><path d="M0 0h2760v4912H0z" fill="#425449" /><g filter="url(#b)" transform="scale(19.187500) translate(0.5 0.5)"><g transform="translate(108.938277 34.769922) rotate(281.688755) scale(118.196700 39.209815)"><ellipse fill="#dbb870" fill-opacity=".501961" cx="0" cy="0" rx="1" ry="1" /></g><g transform="translate(87.147313 234.584427) rotate(56.513622) scale(50.363751 140.296911)"><ellipse fill="#000004" fill-opacity=".501961" cx="0" cy="0" rx="1" ry="1" /></g><ellipse fill="#000005" fill-opacity=".501961" cx="109" cy="255" rx="84" ry="56" /><g transform="translate(98.551931 177.299645) rotate(152.328505) scale(127.151140 24.595183)"><ellipse fill="#003b5b" fill-opacity=".501961" cx="0" cy="0" rx="1" ry="1" /></g><g transform="translate(78.778723 47.006922) rotate(63.457681) scale(66.988088 19.088846)"><ellipse fill="#b7a16d" fill-opacity=".501961" cx="0" cy="0" rx="1" ry="1" /></g><g transform="translate(56.721045 139.186279) rotate(199.500770) scale(16.656115 74.141952)"><ellipse fill="#66917d" fill-opacity=".501961" cx="0" cy="0" rx="1" ry="1" /></g><g transform="translate(123.244866 107.604515) rotate(143.413175) scale(25.897331 11.721295)"><ellipse fill="#022f36" fill-opacity=".501961" cx="0" cy="0" rx="1" ry="1" /></g><g transform="translate(124.703131 4.695035) rotate(89.701562) scale(18.112369 52.359605)"><ellipse fill="#604327" fill-opacity=".501961" cx="0" cy="0" rx="1" ry="1" /></g></g></svg>