<svg xmlns="http://www.w3.org/2000/svg" viewBox="0 0 4912 2760"><filter id="b"><feGaussianBlur stdDeviation="12" /></filter><path d="M0 0h4912v2760H0z" fill="#626d87" /><g filter="url(#b)" transform="scale(19.187500) translate(0.5 0.5)"><g transform="translate(184.660137 120.774314) rotate(258.570449) scale(37.404850 196.952151)"><ellipse fill="#ff7100" fill-opacity=".501961" cx="0" cy="0" rx="1" ry="1" /></g><g transform="translate(111.319372 27.713240) rotate(89.468588) scale(37.083442 194.776831)"><ellipse fill="#0067ff" fill-opacity=".501961" cx="0" cy="0" rx="1" ry="1" /></g><g transform="translate(102.113717 73.015396) rotate(89.461241) scale(34.320254 88.791009)"><ellipse fill="#89b1dd" fill-opacity=".501961" cx="0" cy="0" rx="1" ry="1" /></g><g transform="translate(126.313304 0.068952) rotate(361.007159) scale(255.000000 29.198368)"><ellipse fill="#0021a1" fill-opacity=".501961" cx="0" cy="0" rx="1" ry="1" /></g><g transform="translate(174.961341 135.421669) rotate(70.880048) scale(36.960099 219.005473)"><ellipse fill="#c66e00" fill-opacity=".501961" cx="0" cy="0" rx="1" ry="1" /></g><g transform="translate(24.656760 121.195831) rotate(327.948089) scale(54.582937 29.731136)"><ellipse fill="#7c4332" fill-opacity=".501961" cx="0" cy="0" rx="1" ry="1" /></g><path fill="#0c041c" fill-opacity=".501961" d="M271 74.504816 150.282898 71.175853l82.09116-12.506681L257.258278 56.496177z" /><g transform="translate(69.245741 56.691087) rotate(87.940385) scale(14.078789 165.786493)"><ellipse fill="#66b5f2" fill-opacity=".501961" cx="0" cy="0" rx="1" ry="1" /></g></g></svg>