<svg xmlns="http://www.w3.org/2000/svg" viewBox="0 0 4448 2162"><filter id="b"><feGaussianBlur stdDeviation="12" /></filter><path d="M0 0h4448v2162H0z" fill="#c49a56" /><g filter="url(#b)" transform="scale(17.375000) translate(0.5 0.5)"><g transform="translate(122.727071 19.357885) rotate(267.835740) scale(40.978540 209.643209)"><ellipse fill="#6498fd" fill-opacity=".501961" cx="0" cy="0" rx="1" ry="1" /></g><g transform="translate(147.674648 116.862722) rotate(-1.344434) scale(255.000000 58.082766)"><ellipse fill="#ffa300" fill-opacity=".501961" cx="0" cy="0" rx="1" ry="1" /></g><g transform="translate(247.011700 50.227060) rotate(267.254586) scale(7.618709 71.681202)"><ellipse fill="#050b28" fill-opacity=".501961" cx="0" cy="0" rx="1" ry="1" /></g><g transform="translate(133.733313 105.998443) rotate(90.051687) scale(44.018398 216.994272)"><ellipse fill="#ff9f00" fill-opacity=".501961" cx="0" cy="0" rx="1" ry="1" /></g><ellipse fill="#304f74" fill-opacity=".501961" cx="21" cy="56" rx="170" ry="6" /><path fill="#b6b3bb" fill-opacity=".501961" d="M199 51-16 6 255-16z" /><ellipse fill="#ff9f00" fill-opacity=".501961" cx="156" cy="98" rx="250" ry="37" /><g transform="translate(85.464716 38.859600) rotate(170.923739) scale(98.848275 11.126457)"><ellipse fill="#7b92bd" fill-opacity=".501961" cx="0" cy="0" rx="1" ry="1" /></g></g></svg>