<svg xmlns="http://www.w3.org/2000/svg" viewBox="0 0 1895 1065"><filter id="b"><feGaussianBlur stdDeviation="12" /></filter><path d="M0 0h1895v1065H0z" fill="#bf1e2a" /><g filter="url(#b)" transform="scale(7.402344) translate(0.5 0.5)"><g transform="translate(197.525143 127.954513) rotate(180.611294) scale(110.781964 49.177324)"><ellipse fill="#260000" fill-opacity=".501961" cx="0" cy="0" rx="1" ry="1" /></g><g transform="translate(124.050887 12.985859) rotate(-10.600594) scale(209.637281 41.196709)"><ellipse fill="#ff4a75" fill-opacity=".501961" cx="0" cy="0" rx="1" ry="1" /></g><ellipse fill="#ff3205" fill-opacity=".501961" cx="171" cy="80" rx="17" ry="53" /><g transform="translate(106.324226 52.509844) rotate(-4.696682) scale(53.746545 21.676897)"><ellipse fill="#f4110e" fill-opacity=".501961" cx="0" cy="0" rx="1" ry="1" /></g><ellipse fill="#ff3863" fill-opacity=".501961" cx="42" cy="12" rx="57" ry="57" /><g transform="translate(9.187188 142.000000) rotate(329.667185) scale(27.702407 23.644477)"><ellipse fill="#400000" fill-opacity=".501961" cx="0" cy="0" rx="1" ry="1" /></g><ellipse fill="#ff5279" fill-opacity=".501961" cx="153" cy="0" rx="41" ry="41" /><ellipse fill="#ff222d" fill-opacity=".501961" cx="241" cy="22" rx="41" ry="30" /></g></svg>