<svg xmlns="http://www.w3.org/2000/svg" viewBox="0 0 2340 4160"><filter id="b"><feGaussianBlur stdDeviation="12" /></filter><path d="M0 0h2340v4160H0z" fill="#2c2613" /><g filter="url(#b)" transform="scale(16.250000) translate(0.5 0.5)"><g transform="translate(89.162321 72.878270) rotate(87.375194) scale(85.631505 13.133684)"><ellipse fill="#fffffa" fill-opacity=".501961" cx="0" cy="0" rx="1" ry="1" /></g><g transform="translate(89.306579 125.077450) rotate(-12.324028) scale(41.269585 30.245349)"><ellipse fill="#e9a21f" fill-opacity=".501961" cx="0" cy="0" rx="1" ry="1" /></g><ellipse fill="#000" fill-opacity=".501961" cx="26" cy="101" rx="33" ry="255" /><g transform="translate(116.252333 5.012760) rotate(239.032930) scale(94.440956 33.654300)"><ellipse fill="#000014" fill-opacity=".501961" cx="0" cy="0" rx="1" ry="1" /></g><path fill="#f1f6d6" fill-opacity=".501961" d="M92.79686 141.230819 80.20311 107.875635 88.854522 46.930657 104.364805 127.210696z" /><g transform="translate(73.590931 158.899475) rotate(158.427385) scale(20.407638 71.392300)"><ellipse fill="#794500" fill-opacity=".501961" cx="0" cy="0" rx="1" ry="1" /></g><g transform="translate(66.553162 247.296067) rotate(6.987873) scale(141.772620 71.990363)"><ellipse fill="#000" fill-opacity=".501961" cx="0" cy="0" rx="1" ry="1" /></g><path d="M0 0h2340v4160H0z" fill="#885808" /></g></svg>