<svg xmlns="http://www.w3.org/2000/svg" viewBox="0 0 4128 2322"><filter id="b"><feGaussianBlur stdDeviation="12" /></filter><path d="M0 0h4128v2322H0z" fill="#262515" /><g filter="url(#b)" transform="scale(16.125000) translate(0.5 0.5)"><g transform="translate(144.659477 58.888087) rotate(260.980324) scale(16.685995 97.450869)"><ellipse fill="#fff927" fill-opacity=".501961" cx="0" cy="0" rx="1" ry="1" /></g><path fill="#ffd01d" fill-opacity=".501961" d="M237 25 175 76 60 77z" /><ellipse fill="#000" fill-opacity=".501961" cx="162" cy="114" rx="255" ry="36" /><ellipse fill="#052e53" fill-opacity=".501961" cx="80" cy="0" rx="156" ry="51" /><g transform="translate(234.437327 92.435938) rotate(18.434610) scale(18.938474 125.458974)"><ellipse fill="#000" fill-opacity=".501961" cx="0" cy="0" rx="1" ry="1" /></g><g transform="translate(47.977533 116.973452) rotate(5.986393) scale(209.856895 38.599266)"><ellipse fill="#000" fill-opacity=".501961" cx="0" cy="0" rx="1" ry="1" /></g><g transform="translate(99.002378 51.514123) rotate(349.449868) scale(77.724111 10.215626)"><ellipse fill="#955a33" fill-opacity=".501961" cx="0" cy="0" rx="1" ry="1" /></g><path d="M0 0h4128v2322H0z" fill="#ffc420" /></g></svg>