<svg xmlns="http://www.w3.org/2000/svg" viewBox="0 0 4912 2760"><filter id="b"><feGaussianBlur stdDeviation="12" /></filter><path d="M0 0h4912v2760H0z" fill="#b09b8c" /><g filter="url(#b)" transform="scale(19.187500) translate(0.5 0.5)"><ellipse fill="#fff" fill-opacity=".501961" cx="200" cy="17" rx="66" ry="66" /><g transform="translate(96.786836 118.357597) rotate(207.299640) scale(38.296162 97.141454)"><ellipse fill="#6f4d00" fill-opacity=".501961" cx="0" cy="0" rx="1" ry="1" /></g><g transform="translate(241.324014 114.623664) rotate(51.762605) scale(28.559344 62.365950)"><ellipse fill="#2c2141" fill-opacity=".501961" cx="0" cy="0" rx="1" ry="1" /></g><g transform="translate(57.914977 13.398137) rotate(259.139229) scale(43.699598 79.955260)"><ellipse fill="#ecdee6" fill-opacity=".501961" cx="0" cy="0" rx="1" ry="1" /></g><g transform="translate(78.163665 73.533941) rotate(187.755753) scale(57.552540 8.551651)"><ellipse fill="#4c1600" fill-opacity=".501961" cx="0" cy="0" rx="1" ry="1" /></g><g transform="translate(109.190147 96.068321) rotate(168.933184) scale(13.112720 40.788665)"><ellipse fill="#2b2400" fill-opacity=".501961" cx="0" cy="0" rx="1" ry="1" /></g><g transform="translate(255.000000 35.079355) rotate(-22.720057) scale(34.779043 43.202637)"><ellipse fill="#fbffff" fill-opacity=".501961" cx="0" cy="0" rx="1" ry="1" /></g><g transform="translate(51.973612 102.341381) rotate(303.807087) scale(13.110992 32.516042)"><ellipse fill="#efccd6" fill-opacity=".501961" cx="0" cy="0" rx="1" ry="1" /></g></g></svg>