<svg xmlns="http://www.w3.org/2000/svg" viewBox="0 0 4912 2760"><filter id="b"><feGaussianBlur stdDeviation="12" /></filter><path d="M0 0h4912v2760H0z" fill="#797358" /><g filter="url(#b)" transform="scale(19.187500) translate(0.5 0.5)"><g transform="translate(148.500495 0.000000) rotate(71.589655) scale(103.090119 9.318053)"><ellipse fill="#e3e3cc" fill-opacity=".501961" cx="0" cy="0" rx="1" ry="1" /></g><path fill="#fdfeeb" fill-opacity=".501961" d="M61.313942-16 99.82985 55.652172 110.526863 89.629344 80.338948 51.275095z" /><path fill="#fffff7" fill-opacity=".501961" d="M76-15l41 70L105 5z" /><path fill="#eaebdf" fill-opacity=".501961" d="M237.519059-16 247.793934 33.161739 251.214141 35.789719 217.328256 23.185595z" /><g transform="translate(255.000000 138.861541) rotate(112.819095) scale(62.743149 25.822827)"><ellipse fill="#211b0a" fill-opacity=".501961" cx="0" cy="0" rx="1" ry="1" /></g><g transform="translate(164.000046 130.194608) rotate(247.697080) scale(89.868113 17.370968)"><ellipse fill="#524527" fill-opacity=".501961" cx="0" cy="0" rx="1" ry="1" /></g><path fill="#f1f6d7" fill-opacity=".501961" d="M51 3 24-9 56 37z" /><g transform="translate(30.648990 98.258727) rotate(335.368096) scale(6.085074 59.190743)"><ellipse fill="#362a17" fill-opacity=".501961" cx="0" cy="0" rx="1" ry="1" /></g></g></svg>