<svg xmlns="http://www.w3.org/2000/svg" viewBox="0 0 4822 2709"><filter id="b"><feGaussianBlur stdDeviation="12" /></filter><path d="M0 0h4822v2709H0z" fill="#918d7a" /><g filter="url(#b)" transform="scale(18.835938) translate(0.5 0.5)"><g transform="translate(109.457825 137.624436) rotate(92.126754) scale(33.882912 255.000000)"><ellipse fill="#4c0f00" fill-opacity=".501961" cx="0" cy="0" rx="1" ry="1" /></g><ellipse fill="#aed2d6" fill-opacity=".501961" cx="109" cy="17" rx="199" ry="54" /><path fill="#dfe9d7" fill-opacity=".501961" d="M16.955441 84.117304 144.790488 101.069961 271 94.254732 108.576769 80.365664z" /><ellipse fill="#763200" fill-opacity=".501961" cx="30" cy="76" rx="255" ry="5" /><g transform="translate(133.976367 138.539634) rotate(92.468357) scale(15.298052 242.982338)"><ellipse fill="#582d00" fill-opacity=".501961" cx="0" cy="0" rx="1" ry="1" /></g><g transform="translate(124 1) rotate(170) scale(255 41)"><path d="M0 0h4822v2709H0z" fill="#6ba1c1" /></g><ellipse fill="#9a814a" fill-opacity=".501961" cx="149" cy="109" rx="115" ry="10" /><g transform="translate(148.035112 39.731113) rotate(349.464403) scale(114.700143 19.559603)"><ellipse fill="#c8c09e" fill-opacity=".501961" cx="0" cy="0" rx="1" ry="1" /></g></g></svg>