<svg xmlns="http://www.w3.org/2000/svg" viewBox="0 0 1920 1080"><filter id="b"><feGaussianBlur stdDeviation="12" /></filter><path d="M0 0h1920v1080H0z" fill="#a3a977" /><g filter="url(#b)" transform="scale(7.500000) translate(0.5 0.5)"><ellipse fill="#fcfff2" fill-opacity=".501961" cx="30" cy="7" rx="66" ry="66" /><g transform="translate(237.415683 91.318284) rotate(56.337840) scale(23.076353 46.680695)"><ellipse fill="#2c3a04" fill-opacity=".501961" cx="0" cy="0" rx="1" ry="1" /></g><g transform="translate(15.340228 131.197060) rotate(95.485002) scale(22.853247 50.346729)"><ellipse fill="#293700" fill-opacity=".501961" cx="0" cy="0" rx="1" ry="1" /></g><path d="M0 0h1920v1080H0z" fill="#fff" /><g transform="translate(225 18) rotate(352) scale(30 44)"><path d="M0 0h1920v1080H0z" fill="#061500" /></g><ellipse fill="#777521" fill-opacity=".501961" cx="126" cy="101" rx="28" ry="136" /><ellipse fill="#fffff8" fill-opacity=".501961" cx="77" cy="96" rx="19" ry="31" /><g transform="translate(159.741812 67.806191) rotate(271.304147) scale(57.984601 4.747008)"><ellipse fill="#fff" fill-opacity=".501961" cx="0" cy="0" rx="1" ry="1" /></g></g></svg>