<svg xmlns="http://www.w3.org/2000/svg" viewBox="0 0 1920 1080"><filter id="b"><feGaussianBlur stdDeviation="12" /></filter><path d="M0 0h1920v1080H0z" fill="#272320" /><g filter="url(#b)" transform="scale(7.500000) translate(0.5 0.5)"><g transform="translate(78.164452 63.091348) rotate(113.744973) scale(26.144060 88.032219)"><ellipse fill="#a58995" fill-opacity=".501961" cx="0" cy="0" rx="1" ry="1" /></g><g transform="translate(176 142) rotate(29) scale(73 56)"><path d="M0 0h1920v1080H0z" fill="#c0894e" /></g><g transform="translate(207.445736 39.908596) rotate(322.869302) scale(68.545479 88.790507)"><ellipse fill="#000" fill-opacity=".501961" cx="0" cy="0" rx="1" ry="1" /></g><g transform="translate(129.886433 69.094375) rotate(291.722612) scale(6.167658 24.443539)"><ellipse fill="#ffc4ff" fill-opacity=".501961" cx="0" cy="0" rx="1" ry="1" /></g><g transform="translate(112.172119 82.007486) rotate(295.239082) scale(8.660004 40.544386)"><ellipse fill="#000" fill-opacity=".501961" cx="0" cy="0" rx="1" ry="1" /></g><g transform="translate(70.385145 143.000000) rotate(278.692010) scale(34.418864 79.686299)"><ellipse fill="#000" fill-opacity=".501961" cx="0" cy="0" rx="1" ry="1" /></g><path fill="#b1daff" fill-opacity=".501961" d="M2.626092 28.415914 21.219629 56.184537 49.210498 54.758829 27.570055 38.086195z" /><g transform="translate(156.985547 99.560274) rotate(145.060238) scale(5.562136 38.676661)"><ellipse fill="#ffb5a3" fill-opacity=".501961" cx="0" cy="0" rx="1" ry="1" /></g></g></svg>