<svg xmlns="http://www.w3.org/2000/svg" viewBox="0 0 1920 1080"><filter id="b"><feGaussianBlur stdDeviation="12" /></filter><path d="M0 0h1920v1080H0z" fill="#987c57" /><g filter="url(#b)" transform="scale(7.500000) translate(0.5 0.5)"><g transform="translate(185.249378 86.969038) rotate(91.623937) scale(56.395468 23.211595)"><ellipse fill="#fff" fill-opacity=".501961" cx="0" cy="0" rx="1" ry="1" /></g><g transform="translate(25 100) rotate(-3) scale(78 53)"><path d="M0 0h1920v1080H0z" fill="#000" /></g><g transform="translate(12.258518 8.688036) rotate(182.772894) scale(68.329553 26.904635)"><ellipse fill="#0f0400" fill-opacity=".501961" cx="0" cy="0" rx="1" ry="1" /></g><g transform="translate(235.099395 12.710912) rotate(312.903090) scale(34.197947 60.585414)"><ellipse fill="#351f00" fill-opacity=".501961" cx="0" cy="0" rx="1" ry="1" /></g><g transform="translate(67.920608 143.000000) rotate(163.268830) scale(183.177128 21.956301)"><ellipse fill="#ffeda8" fill-opacity=".501961" cx="0" cy="0" rx="1" ry="1" /></g><path d="M0 0h1920v1080H0z" fill="#000" /><g transform="translate(183.509043 81.356336) rotate(266.708881) scale(40.172134 19.099164)"><ellipse fill="#fff" fill-opacity=".501961" cx="0" cy="0" rx="1" ry="1" /></g><g transform="translate(239.163670 137.300817) rotate(69.792301) scale(20.628325 34.489419)"><ellipse fill="#1a0d00" fill-opacity=".501961" cx="0" cy="0" rx="1" ry="1" /></g></g></svg>