<svg xmlns="http://www.w3.org/2000/svg" viewBox="0 0 1920 1080"><filter id="b"><feGaussianBlur stdDeviation="12" /></filter><path d="M0 0h1920v1080H0z" fill="#544e41" /><g filter="url(#b)" transform="scale(7.500000) translate(0.5 0.5)"><g transform="translate(79.205237 26.425861) rotate(131.060689) scale(18.718072 63.752021)"><ellipse fill="#fff" fill-opacity=".501961" cx="0" cy="0" rx="1" ry="1" /></g><g transform="translate(178.719285 85.088683) rotate(89.088675) scale(23.296691 39.824441)"><ellipse fill="#ffffb9" fill-opacity=".501961" cx="0" cy="0" rx="1" ry="1" /></g><ellipse fill="#000" fill-opacity=".501961" cx="30" cy="104" rx="58" ry="46" /><g transform="translate(181.763398 15.534414) rotate(274.586121) scale(30.810818 84.275911)"><ellipse fill="#000204" fill-opacity=".501961" cx="0" cy="0" rx="1" ry="1" /></g><g transform="translate(159 100) rotate(-62) scale(52 28)"><path d="M0 0h1920v1080H0z" fill="#fff5ca" /></g><g transform="translate(27.232683 107.224616) rotate(153.636474) scale(76.701442 24.256413)"><ellipse fill="#000" fill-opacity=".501961" cx="0" cy="0" rx="1" ry="1" /></g><path fill="#d18e95" fill-opacity=".501961" d="M99.18346 60.930964 87.150284 107.161265 112.485166 99.556944 129.793864 33.229177z" /><g transform="translate(81.647696 20.698890) rotate(216.509419) scale(40.612040 9.651214)"><ellipse fill="ivory" fill-opacity=".501961" cx="0" cy="0" rx="1" ry="1" /></g></g></svg>