<svg xmlns="http://www.w3.org/2000/svg" viewBox="0 0 1920 1080"><filter id="b"><feGaussianBlur stdDeviation="12" /></filter><path d="M0 0h1920v1080H0z" fill="#5a563c" /><g filter="url(#b)" transform="scale(7.500000) translate(0.5 0.5)"><ellipse fill="#a0be64" fill-opacity=".501961" cx="210" cy="4" rx="74" ry="74" /><g transform="translate(209.337320 99.016534) rotate(88.309447) scale(153.332181 8.906837)"><ellipse fill="#000" fill-opacity=".501961" cx="0" cy="0" rx="1" ry="1" /></g><path fill="#ffeeda" fill-opacity=".501961" d="M35.396523 30.769328 23.248664 40.924744 10.779805 49.830737 66.751404 42.990875z" /><path fill="#a6c5b2" fill-opacity=".501961" d="M230.362633 133.68001 217.790964 131.230375 219.48511 99.854153 265.868662 62.128532z" /><g transform="translate(72.996755 83.975974) rotate(154.359134) scale(19.878225 31.523070)"><ellipse fill="#cf797f" fill-opacity=".501961" cx="0" cy="0" rx="1" ry="1" /></g><ellipse fill="#26261c" fill-opacity=".501961" cx="137" cy="116" rx="50" ry="50" /><g transform="translate(88.846014 31.726049) rotate(14.581298) scale(68.252055 20.342863)"><ellipse fill="#172714" fill-opacity=".501961" cx="0" cy="0" rx="1" ry="1" /></g><g transform="translate(35.433981 117.781087) rotate(352.081663) scale(28.802950 36.990889)"><ellipse fill="#990544" fill-opacity=".501961" cx="0" cy="0" rx="1" ry="1" /></g></g></svg>