<svg xmlns="http://www.w3.org/2000/svg" viewBox="0 0 1148 2042"><filter id="b"><feGaussianBlur stdDeviation="12" /></filter><path d="M0 0h1148v2042H0z" fill="#865656" /><g filter="url(#b)" transform="scale(7.976562) translate(0.5 0.5)"><g transform="translate(69.079359 18.866562) rotate(71.497864) scale(62.909068 81.831640)"><ellipse fill="#003cbe" fill-opacity=".501961" cx="0" cy="0" rx="1" ry="1" /></g><g transform="translate(0.000000 165.096026) rotate(223.778681) scale(130.372580 86.013130)"><ellipse fill="#ff9556" fill-opacity=".501961" cx="0" cy="0" rx="1" ry="1" /></g><path fill="#560000" fill-opacity=".501961" d="M159 16 141 271 69 84z" /><ellipse fill="#004d9b" fill-opacity=".501961" cx="57" cy="28" rx="57" ry="57" /><ellipse fill="#fc4c14" fill-opacity=".501961" cx="70" cy="255" rx="63" ry="63" /><g transform="translate(22.604436 156.297345) rotate(211.177934) scale(45.376500 21.617585)"><ellipse fill="#ffbab4" fill-opacity=".501961" cx="0" cy="0" rx="1" ry="1" /></g><g transform="translate(38.787567 103.023497) rotate(207.945880) scale(47.179634 20.824901)"><ellipse fill="#fba380" fill-opacity=".501961" cx="0" cy="0" rx="1" ry="1" /></g><path fill="#cc6a44" fill-opacity=".501961" d="M61 95l63-37-19 72z" /></g></svg>