<svg xmlns="http://www.w3.org/2000/svg" viewBox="0 0 4912 2760"><filter id="b"><feGaussianBlur stdDeviation="12" /></filter><path d="M0 0h4912v2760H0z" fill="#181e0a" /><g filter="url(#b)" transform="scale(19.187500) translate(0.5 0.5)"><g transform="translate(131.178600 65.923005) rotate(94.740453) scale(22.130274 67.656861)"><ellipse fill="#ffff67" fill-opacity=".501961" cx="0" cy="0" rx="1" ry="1" /></g><path fill="#add04e" fill-opacity=".501961" d="M178 44 99 1e2 73 47z" /><g transform="translate(112.984891 24.601096) rotate(175.042109) scale(148.845013 21.855419)"><ellipse fill="#000" fill-opacity=".501961" cx="0" cy="0" rx="1" ry="1" /></g><g transform="translate(192.425046 122.566882) rotate(347.935410) scale(255.000000 33.287475)"><ellipse fill="#000" fill-opacity=".501961" cx="0" cy="0" rx="1" ry="1" /></g><ellipse fill="#000" fill-opacity=".501961" cx="233" cy="21" rx="60" ry="60" /><path fill="#5c7634" fill-opacity=".501961" d="M77 74l-5 26 79-14z" /><ellipse fill="#000" fill-opacity=".501961" cx="18" cy="43" rx="54" ry="103" /><path fill="#e4ec80" fill-opacity=".501961" d="M197 67 136 43 125 64z" /></g></svg>