<svg xmlns="http://www.w3.org/2000/svg" viewBox="0 0 1151 2048"><filter id="b"><feGaussianBlur stdDeviation="12" /></filter><path d="M0 0h1151v2048H0z" fill="#a11432" /><g filter="url(#b)" transform="scale(8.000000) translate(0.5 0.5)"><g transform="translate(41.189747 79.925119) rotate(277.061183) scale(50.707481 143.000000)"><ellipse fill="#ff2e7c" fill-opacity=".501961" cx="0" cy="0" rx="1" ry="1" /></g><g transform="translate(74.259790 231.709222) rotate(334.948640) scale(143.000000 75.133991)"><ellipse fill="#2a0600" fill-opacity=".501961" cx="0" cy="0" rx="1" ry="1" /></g><ellipse fill="#0d0b04" fill-opacity=".501961" cx="53" cy="252" rx="100" ry="32" /><g transform="translate(38.904744 105.176675) rotate(362.608725) scale(118.998691 25.711297)"><ellipse fill="#ff4067" fill-opacity=".501961" cx="0" cy="0" rx="1" ry="1" /></g><g transform="translate(70.543766 168.432555) rotate(180.439445) scale(90.771835 40.281580)"><ellipse fill="#970c06" fill-opacity=".501961" cx="0" cy="0" rx="1" ry="1" /></g><g transform="translate(63.969335 34.641891) rotate(110.157358) scale(24.868214 143.000000)"><ellipse fill="#c00048" fill-opacity=".501961" cx="0" cy="0" rx="1" ry="1" /></g><ellipse fill="#ff475c" fill-opacity=".501961" cx="110" cy="117" rx="141" ry="13" /><g transform="translate(122.857785 17.871976) rotate(40.799195) scale(111.576431 26.700698)"><ellipse fill="#890048" fill-opacity=".501961" cx="0" cy="0" rx="1" ry="1" /></g></g></svg>