<svg xmlns="http://www.w3.org/2000/svg" viewBox="0 0 4128 2322"><filter id="b"><feGaussianBlur stdDeviation="12" /></filter><path d="M0 0h4128v2322H0z" fill="#615639" /><g filter="url(#b)" transform="scale(16.125000) translate(0.5 0.5)"><g transform="translate(240.376385 22.057879) rotate(277.271772) scale(38.707394 153.973997)"><ellipse fill="#fff" fill-opacity=".501961" cx="0" cy="0" rx="1" ry="1" /></g><g transform="translate(37.818674 93.722554) rotate(258.270988) scale(195.656152 63.346114)"><ellipse fill="#000" fill-opacity=".501961" cx="0" cy="0" rx="1" ry="1" /></g><g transform="translate(150.901663 69.766839) rotate(241.500466) scale(37.294273 60.665830)"><ellipse fill="#ea991b" fill-opacity=".501961" cx="0" cy="0" rx="1" ry="1" /></g><g transform="translate(221.425789 9.789687) rotate(295.894584) scale(27.266782 73.301854)"><ellipse fill="#fff" fill-opacity=".501961" cx="0" cy="0" rx="1" ry="1" /></g><g transform="translate(61.523224 136.602928) rotate(92.817662) scale(35.975572 255.000000)"><ellipse fill="#000" fill-opacity=".501961" cx="0" cy="0" rx="1" ry="1" /></g><ellipse fill="#b0a58c" fill-opacity=".501961" cx="244" cy="69" rx="44" ry="25" /><ellipse fill="#000300" fill-opacity=".501961" cx="20" cy="85" rx="71" ry="71" /><g transform="translate(122.931967 86.977672) rotate(230.865060) scale(23.356234 32.763352)"><ellipse fill="#efb434" fill-opacity=".501961" cx="0" cy="0" rx="1" ry="1" /></g></g></svg>