<svg xmlns="http://www.w3.org/2000/svg" viewBox="0 0 4912 2760"><filter id="b"><feGaussianBlur stdDeviation="12" /></filter><path d="M0 0h4912v2760H0z" fill="#311304" /><g filter="url(#b)" transform="scale(19.187500) translate(0.5 0.5)"><g transform="translate(107.391192 65.767961) rotate(348.668001) scale(35.177484 61.949225)"><ellipse fill="#ff4110" fill-opacity=".501961" cx="0" cy="0" rx="1" ry="1" /></g><g transform="translate(36.512005 110.668452) rotate(151.486783) scale(53.611290 122.085780)"><ellipse fill="#000" fill-opacity=".501961" cx="0" cy="0" rx="1" ry="1" /></g><path fill="#fffabe" fill-opacity=".501961" d="M147.122559 116.23315 130.436696 137.021465 147.580635 158 155.153189 123.74599z" /><ellipse fill="#000300" fill-opacity=".501961" cx="205" cy="114" rx="53" ry="101" /><g transform="translate(96.078469 46.371173) rotate(270.962992) scale(19.474652 43.799191)"><ellipse fill="#e2451c" fill-opacity=".501961" cx="0" cy="0" rx="1" ry="1" /></g><path d="M0 0h4912v2760H0z" fill="#000" /><g transform="translate(60.867374 47.523224) rotate(72.088357) scale(9.112735 5.280555)"><ellipse fill="#f1fac2" fill-opacity=".501961" cx="0" cy="0" rx="1" ry="1" /></g><ellipse fill="#d92f09" fill-opacity=".501961" cx="112" cy="69" rx="29" ry="52" /></g></svg>