<svg xmlns="http://www.w3.org/2000/svg" viewBox="0 0 2760 4912"><filter id="b"><feGaussianBlur stdDeviation="12" /></filter><path d="M0 0h2760v4912H0z" fill="#425449" /><g filter="url(#b)" transform="scale(19.187500) translate(0.5 0.5)"><g transform="translate(104.814835 45.170345) rotate(189.217803) scale(40.064673 106.217753)"><ellipse fill="#d7b670" fill-opacity=".501961" cx="0" cy="0" rx="1" ry="1" /></g><g transform="translate(93.318797 235.885033) rotate(57.121959) scale(55.046621 143.000000)"><ellipse fill="#000004" fill-opacity=".501961" cx="0" cy="0" rx="1" ry="1" /></g><path fill="#000009" fill-opacity=".501961" d="M-16 254l161-81-1 98z" /><g transform="translate(106.180652 173.817434) rotate(235.547549) scale(25.216195 76.691484)"><ellipse fill="#003460" fill-opacity=".501961" cx="0" cy="0" rx="1" ry="1" /></g><ellipse fill="#507c70" fill-opacity=".501961" cx="47" cy="104" rx="28" ry="110" /><path fill="#002a36" fill-opacity=".501961" d="M149 125 135 83 95 120z" /><ellipse fill="#d1af6e" fill-opacity=".501961" cx="119" cy="67" rx="48" ry="23" /><g transform="translate(127.870161 3.406359) rotate(81.755951) scale(38.350247 84.919943)"><ellipse fill="#8a683d" fill-opacity=".501961" cx="0" cy="0" rx="1" ry="1" /></g></g></svg>