<svg xmlns="http://www.w3.org/2000/svg" viewBox="0 0 4912 2760"><filter id="b"><feGaussianBlur stdDeviation="12" /></filter><path d="M0 0h4912v2760H0z" fill="#626d87" /><g filter="url(#b)" transform="scale(19.187500) translate(0.5 0.5)"><g transform="translate(162.998993 126.849150) rotate(346.743921) scale(225.317143 38.220819)"><ellipse fill="#ff6f00" fill-opacity=".501961" cx="0" cy="0" rx="1" ry="1" /></g><g transform="translate(159.691975 18.516747) rotate(446.731104) scale(43.235169 255.000000)"><ellipse fill="#06f" fill-opacity=".501961" cx="0" cy="0" rx="1" ry="1" /></g><g transform="translate(101.138420 73.220025) rotate(91.079579) scale(34.113297 88.879484)"><ellipse fill="#8ab2de" fill-opacity=".501961" cx="0" cy="0" rx="1" ry="1" /></g><g transform="translate(151.306906 6.584246) rotate(180.256285) scale(255.000000 22.865907)"><ellipse fill="#0022a1" fill-opacity=".501961" cx="0" cy="0" rx="1" ry="1" /></g><g transform="translate(200.619000 125.876988) rotate(72.603679) scale(37.127057 163.002855)"><ellipse fill="#c77000" fill-opacity=".501961" cx="0" cy="0" rx="1" ry="1" /></g><g transform="translate(32.906351 130.689320) rotate(57.813077) scale(42.320678 56.652107)"><ellipse fill="#7e4837" fill-opacity=".501961" cx="0" cy="0" rx="1" ry="1" /></g><g transform="translate(237.697294 66.571364) rotate(359.170051) scale(70.364229 7.662315)"><ellipse fill="#191229" fill-opacity=".501961" cx="0" cy="0" rx="1" ry="1" /></g><g transform="translate(134.054124 57.122600) rotate(266.735151) scale(11.342655 96.179752)"><ellipse fill="#7ac1f5" fill-opacity=".501961" cx="0" cy="0" rx="1" ry="1" /></g></g></svg>