<svg xmlns="http://www.w3.org/2000/svg" viewBox="0 0 3456 4608"><filter id="b"><feGaussianBlur stdDeviation="12" /></filter><path d="M0 0h3456v4608H0z" fill="#1c2b29" /><g filter="url(#b)" transform="scale(18.000000) translate(0.5 0.5)"><g transform="translate(103.582589 15.328390) rotate(178.322255) scale(62.287878 41.148859)"><ellipse fill="#fff" fill-opacity=".501961" cx="0" cy="0" rx="1" ry="1" /></g><ellipse fill="#fff" fill-opacity=".501961" cx="115" cy="8" rx="31" ry="43" /><g transform="translate(70.214043 182.597843) rotate(190.297044) scale(191.000000 104.570998)"><ellipse fill="#000" fill-opacity=".501961" cx="0" cy="0" rx="1" ry="1" /></g><g transform="translate(19.485163 0.000000) rotate(313.329434) scale(23.775109 154.295145)"><ellipse fill="#3a5b55" fill-opacity=".501961" cx="0" cy="0" rx="1" ry="1" /></g><ellipse fill="#fff" fill-opacity=".501961" cx="117" cy="16" rx="24" ry="34" /><path fill="#245a51" fill-opacity=".501961" d="M110 89 171-13l13 33z" /><g transform="translate(169.395481 172.944628) rotate(382.698800) scale(52.777244 191.000000)"><ellipse fill="#000403" fill-opacity=".501961" cx="0" cy="0" rx="1" ry="1" /></g><ellipse fill="#003230" fill-opacity=".501961" cx="100" cy="111" rx="57" ry="57" /></g></svg>