<svg xmlns="http://www.w3.org/2000/svg" viewBox="0 0 2340 4160"><filter id="b"><feGaussianBlur stdDeviation="12" /></filter><path d="M0 0h2340v4160H0z" fill="#2c2613" /><g filter="url(#b)" transform="scale(16.250000) translate(0.5 0.5)"><g transform="translate(89.473343 77.260628) rotate(177.269452) scale(14.247333 74.384413)"><ellipse fill="#fffff9" fill-opacity=".501961" cx="0" cy="0" rx="1" ry="1" /></g><g transform="translate(91.128649 127.601823) rotate(168.232800) scale(41.980302 33.422820)"><ellipse fill="#e09a1c" fill-opacity=".501961" cx="0" cy="0" rx="1" ry="1" /></g><ellipse fill="#000" fill-opacity=".501961" cx="25" cy="126" rx="29" ry="255" /><path d="M0 0h2340v4160H0z" fill="#f0f0c9" /><ellipse fill="#000" fill-opacity=".501961" cx="128" cy="26" rx="27" ry="52" /><path d="M0 0h2340v4160H0z" fill="#4680ae" /><g transform="translate(80.201997 240.953029) rotate(270.324437) scale(23.078998 114.625044)"><ellipse fill="#000" fill-opacity=".501961" cx="0" cy="0" rx="1" ry="1" /></g><g transform="translate(65.323207 142.511862) rotate(226.967347) scale(45.682102 23.920335)"><ellipse fill="#784300" fill-opacity=".501961" cx="0" cy="0" rx="1" ry="1" /></g></g></svg>