<svg xmlns="http://www.w3.org/2000/svg" viewBox="0 0 4128 2322"><filter id="b"><feGaussianBlur stdDeviation="12" /></filter><path d="M0 0h4128v2322H0z" fill="#262515" /><g filter="url(#b)" transform="scale(16.125000) translate(0.5 0.5)"><g transform="translate(142.517836 58.031818) rotate(80.845390) scale(18.364796 93.641628)"><ellipse fill="#fff42a" fill-opacity=".501961" cx="0" cy="0" rx="1" ry="1" /></g><path fill="#ffd41a" fill-opacity=".501961" d="M239 28 58 77H173z" /><ellipse fill="#000" fill-opacity=".501961" cx="151" cy="120" rx="255" ry="42" /><g transform="translate(104.237084 14.006066) rotate(174.321773) scale(145.116361 37.942178)"><ellipse fill="#052b51" fill-opacity=".501961" cx="0" cy="0" rx="1" ry="1" /></g><g transform="translate(180.436555 116.887845) rotate(177.202521) scale(255.000000 38.857184)"><ellipse fill="#000" fill-opacity=".501961" cx="0" cy="0" rx="1" ry="1" /></g><g transform="translate(78.006010 60.423762) rotate(159.563687) scale(39.238584 16.757403)"><ellipse fill="#9f5a27" fill-opacity=".501961" cx="0" cy="0" rx="1" ry="1" /></g><g transform="translate(255.000000 55.375708) rotate(188.956734) scale(24.052924 109.204158)"><ellipse fill="#000" fill-opacity=".501961" cx="0" cy="0" rx="1" ry="1" /></g><path d="M0 0h4128v2322H0z" fill="#ffc322" /></g></svg>