<svg xmlns="http://www.w3.org/2000/svg" viewBox="0 0 4128 2322"><filter id="b"><feGaussianBlur stdDeviation="12" /></filter><path d="M0 0h4128v2322H0z" fill="#6c6553" /><g filter="url(#b)" transform="scale(16.125000) translate(0.5 0.5)"><g transform="translate(96.214240 8.634496) rotate(275.552345) scale(23.858908 255.000000)"><ellipse fill="#000" fill-opacity=".501961" cx="0" cy="0" rx="1" ry="1" /></g><ellipse fill="#bdad96" fill-opacity=".501961" cx="99" cy="117" rx="98" ry="95" /><g transform="translate(22.520695 19.846431) rotate(61.575605) scale(26.679441 53.805387)"><ellipse fill="#000" fill-opacity=".501961" cx="0" cy="0" rx="1" ry="1" /></g><g transform="translate(109.040148 135.760183) rotate(293.625582) scale(27.632147 15.613278)"><ellipse fill="#000" fill-opacity=".501961" cx="0" cy="0" rx="1" ry="1" /></g><g transform="translate(225.806244 37.800493) rotate(170.552818) scale(63.010605 15.859403)"><ellipse fill="#141709" fill-opacity=".501961" cx="0" cy="0" rx="1" ry="1" /></g><ellipse fill="#000" fill-opacity=".501961" cx="119" cy="6" rx="70" ry="17" /><ellipse fill="#b3a084" fill-opacity=".501961" cx="153" cy="29" rx="25" ry="9" /><path d="M0 0h4128v2322H0z" fill="#181531" /></g></svg>