<svg xmlns="http://www.w3.org/2000/svg" viewBox="0 0 4912 2760"><filter id="b"><feGaussianBlur stdDeviation="12" /></filter><path d="M0 0h4912v2760H0z" fill="#435c80" /><g filter="url(#b)" transform="scale(19.187500) translate(0.5 0.5)"><g transform="translate(23.869409 75.493882) rotate(89.279564) scale(168.716002 45.651912)"><ellipse fill="#000" fill-opacity=".501961" cx="0" cy="0" rx="1" ry="1" /></g><g transform="translate(155.347040 72.876781) rotate(260.482285) scale(61.260797 90.081964)"><ellipse fill="#81b2f4" fill-opacity=".501961" cx="0" cy="0" rx="1" ry="1" /></g><g transform="translate(30.859570 92.116355) rotate(87.527318) scale(147.218016 36.799828)"><ellipse fill="#000" fill-opacity=".501961" cx="0" cy="0" rx="1" ry="1" /></g><g transform="translate(152.568173 57.998700) rotate(94.985525) scale(18.429538 15.330966)"><ellipse fill="#fffff9" fill-opacity=".501961" cx="0" cy="0" rx="1" ry="1" /></g><g transform="translate(180.798472 142.000000) rotate(359.745643) scale(110.792971 13.360508)"><ellipse fill="#0d0000" fill-opacity=".501961" cx="0" cy="0" rx="1" ry="1" /></g><g transform="translate(103.500623 24.166520) rotate(295.662951) scale(57.409199 31.702369)"><ellipse fill="#3d6cc3" fill-opacity=".501961" cx="0" cy="0" rx="1" ry="1" /></g><g transform="translate(197.676999 32.350500) rotate(155.545082) scale(38.582983 101.146447)"><ellipse fill="#537bbc" fill-opacity=".501961" cx="0" cy="0" rx="1" ry="1" /></g><path fill="#83c3fa" fill-opacity=".501961" d="M107 129H73L70 96z" /></g></svg>