<svg xmlns="http://www.w3.org/2000/svg" viewBox="0 0 4912 2760"><filter id="b"><feGaussianBlur stdDeviation="12" /></filter><path d="M0 0h4912v2760H0z" fill="#be5818" /><g filter="url(#b)" transform="scale(19.187500) translate(0.5 0.5)"><g transform="translate(114.398090 128.310560) rotate(174.951729) scale(30.849200 49.223582)"><ellipse fill="#002746" fill-opacity=".501961" cx="0" cy="0" rx="1" ry="1" /></g><g transform="translate(115.355329 90.753180) rotate(209.856076) scale(14.739252 32.405378)"><ellipse fill="#420f00" fill-opacity=".501961" cx="0" cy="0" rx="1" ry="1" /></g><g transform="translate(187.142761 64.277525) rotate(365.244677) scale(61.011957 75.319169)"><ellipse fill="#df6213" fill-opacity=".501961" cx="0" cy="0" rx="1" ry="1" /></g><path d="M0 0h4912v2760H0z" fill="#275763" /><g transform="translate(74.388844 62.281333) rotate(329.131773) scale(69.308350 32.142402)"><ellipse fill="#e56b1c" fill-opacity=".501961" cx="0" cy="0" rx="1" ry="1" /></g><g transform="translate(152.938351 127.213963) rotate(122.074314) scale(25.962778 10.871086)"><ellipse fill="#7d2900" fill-opacity=".501961" cx="0" cy="0" rx="1" ry="1" /></g><path fill="#fa7c15" fill-opacity=".501961" d="M155.282642 98.93262 131.962156 61.275756 151.092364 46.443982 123.660032 120.985333z" /><g transform="translate(114.645409 108.551378) rotate(315.044763) scale(16.369343 11.316272)"><ellipse fill="#1c0700" fill-opacity=".501961" cx="0" cy="0" rx="1" ry="1" /></g></g></svg>