<svg xmlns="http://www.w3.org/2000/svg" viewBox="0 0 4912 2760"><filter id="b"><feGaussianBlur stdDeviation="12" /></filter><path d="M0 0h4912v2760H0z" fill="#8e826b" /><g filter="url(#b)" transform="scale(19.187500) translate(0.5 0.5)"><g transform="translate(159.950997 99.682097) rotate(-4.663820) scale(32.214983 69.236575)"><ellipse fill="#00072b" fill-opacity=".501961" cx="0" cy="0" rx="1" ry="1" /></g><ellipse fill="#fffff4" fill-opacity=".501961" cx="65" cy="142" rx="52" ry="47" /><g transform="translate(77 17) rotate(21) scale(55 69)"><path d="M0 0h4912v2760H0z" fill="#efe4cb" /></g><g transform="translate(128.031270 67.660816) rotate(312.185956) scale(56.264793 36.142984)"><ellipse fill="#445c70" fill-opacity=".501961" cx="0" cy="0" rx="1" ry="1" /></g><g transform="translate(17.185035 57.639270) rotate(47.165129) scale(84.798429 35.653035)"><ellipse fill="#d5b287" fill-opacity=".501961" cx="0" cy="0" rx="1" ry="1" /></g><ellipse fill="#43b4ff" fill-opacity=".501961" cx="124" cy="131" rx="14" ry="19" /><ellipse fill="#603008" fill-opacity=".501961" cx="220" cy="142" rx="29" ry="29" /><path fill="#040a0b" fill-opacity=".501961" d="M112 111l78 22V69z" /></g></svg>