<svg xmlns="http://www.w3.org/2000/svg" viewBox="0 0 4912 2760"><filter id="b"><feGaussianBlur stdDeviation="12" /></filter><path d="M0 0h4912v2760H0z" fill="#8b4627" /><g filter="url(#b)" transform="scale(19.187500) translate(0.5 0.5)"><g transform="translate(147.651152 127.972086) rotate(225.077691) scale(78.201368 29.307639)"><ellipse fill="#000" fill-opacity=".501961" cx="0" cy="0" rx="1" ry="1" /></g><g transform="translate(157.813775 35.643557) rotate(214.701964) scale(26.494863 60.162440)"><ellipse fill="#ffa772" fill-opacity=".501961" cx="0" cy="0" rx="1" ry="1" /></g><ellipse fill="#ff8e56" fill-opacity=".501961" cx="65" cy="49" rx="26" ry="142" /><g transform="translate(255.000000 20.379565) rotate(212.711741) scale(21.074931 62.036077)"><ellipse fill="#000" fill-opacity=".501961" cx="0" cy="0" rx="1" ry="1" /></g><g transform="translate(149.448817 126.789806) rotate(252.383277) scale(42.497718 29.219248)"><ellipse fill="#000" fill-opacity=".501961" cx="0" cy="0" rx="1" ry="1" /></g><g transform="translate(139.309142 17.500133) rotate(117.470858) scale(17.796205 79.359738)"><ellipse fill="#fc8e5e" fill-opacity=".501961" cx="0" cy="0" rx="1" ry="1" /></g><ellipse fill="#020000" fill-opacity=".501961" cx="102" cy="55" rx="16" ry="32" /><g transform="translate(9.182837 33.874610) rotate(94.495910) scale(195.807635 12.274166)"><ellipse fill="#411001" fill-opacity=".501961" cx="0" cy="0" rx="1" ry="1" /></g></g></svg>