<svg xmlns="http://www.w3.org/2000/svg" viewBox="0 0 4912 2760"><filter id="b"><feGaussianBlur stdDeviation="12" /></filter><path d="M0 0h4912v2760H0z" fill="#8c7f75" /><g filter="url(#b)" transform="scale(19.187500) translate(0.5 0.5)"><ellipse fill="#e5d1cd" fill-opacity=".501961" cx="83" cy="0" rx="81" ry="81" /><g transform="translate(225.866248 22.759695) rotate(150.300486) scale(59.202782 27.429062)"><ellipse fill="#000" fill-opacity=".501961" cx="0" cy="0" rx="1" ry="1" /></g><g transform="translate(26.591415 110.411489) rotate(130.752461) scale(41.969569 255.000000)"><ellipse fill="#3c2d1f" fill-opacity=".501961" cx="0" cy="0" rx="1" ry="1" /></g><g transform="translate(128.806083 87.204803) rotate(284.594073) scale(32.824454 112.667902)"><ellipse fill="#b59e93" fill-opacity=".501961" cx="0" cy="0" rx="1" ry="1" /></g><path fill="#44160b" fill-opacity=".501961" d="M54 82 24 75 76 44z" /><g transform="translate(82.602797 23.680925) rotate(316.664701) scale(25.517983 48.528158)"><ellipse fill="#cccfd2" fill-opacity=".501961" cx="0" cy="0" rx="1" ry="1" /></g><ellipse fill="#8ca3a9" fill-opacity=".501961" cx="184" cy="108" rx="43" ry="35" /><g transform="translate(238.308899 57.916152) rotate(83.816874) scale(18.906303 56.630028)"><ellipse fill="#5f6555" fill-opacity=".501961" cx="0" cy="0" rx="1" ry="1" /></g></g></svg>