<svg xmlns="http://www.w3.org/2000/svg" viewBox="0 0 4912 2760"><filter id="b"><feGaussianBlur stdDeviation="12" /></filter><path d="M0 0h4912v2760H0z" fill="#787768" /><g filter="url(#b)" transform="scale(19.187500) translate(0.5 0.5)"><g transform="translate(255.000000 68.948361) rotate(460.580253) scale(168.578158 35.313863)"><ellipse fill="#000" fill-opacity=".501961" cx="0" cy="0" rx="1" ry="1" /></g><path fill="#d6d8ea" fill-opacity=".501961" d="M-16-16 78 135 154-16z" /><path fill="#1c0000" fill-opacity=".501961" d="M-16 107l46 51L43 30z" /><g transform="translate(230.523509 120.223727) rotate(110.485518) scale(175.024688 26.223752)"><ellipse fill="#000" fill-opacity=".501961" cx="0" cy="0" rx="1" ry="1" /></g><g transform="translate(165 113) rotate(317) scale(139 28)"><path d="M0 0h4912v2760H0z" fill="#e6cfcd" /></g><g transform="translate(165.162947 50.012026) rotate(128.714796) scale(47.250023 31.860249)"><ellipse fill="#608100" fill-opacity=".501961" cx="0" cy="0" rx="1" ry="1" /></g><g transform="translate(201 42) rotate(182) scale(41 137)"><path d="M0 0h4912v2760H0z" fill="#b29b83" /></g><ellipse fill="#000001" fill-opacity=".501961" cx="246" cy="35" rx="22" ry="138" /></g></svg>