<svg xmlns="http://www.w3.org/2000/svg" viewBox="0 0 4324 2580"><filter id="b"><feGaussianBlur stdDeviation="12" /></filter><path d="M0 0h4324v2580H0z" fill="#623a21" /><g filter="url(#b)" transform="scale(16.890625) translate(0.5 0.5)"><g transform="translate(103.841214 93.847474) rotate(79.487354) scale(89.870372 52.433353)"><ellipse fill="#d88851" fill-opacity=".501961" cx="0" cy="0" rx="1" ry="1" /></g><g transform="translate(236.388166 72.620794) rotate(353.888165) scale(34.730618 206.234575)"><ellipse fill="#000" fill-opacity=".501961" cx="0" cy="0" rx="1" ry="1" /></g><g transform="translate(15.183882 90.941230) rotate(84.045663) scale(239.193667 26.449098)"><ellipse fill="#000" fill-opacity=".501961" cx="0" cy="0" rx="1" ry="1" /></g><g transform="translate(146.163902 111.909899) rotate(175.795675) scale(49.370487 19.536290)"><ellipse fill="#0b0000" fill-opacity=".501961" cx="0" cy="0" rx="1" ry="1" /></g><g transform="translate(137.828758 74.321248) rotate(245.857613) scale(13.961481 49.467769)"><ellipse fill="#ff9940" fill-opacity=".501961" cx="0" cy="0" rx="1" ry="1" /></g><path fill="#f8be96" fill-opacity=".501961" d="M77.584963 129.619394 147.350523 132.219384 195.035196 136.097998 159.246473 166.445481z" /><path fill="#000" fill-opacity=".501961" d="M120 10l-9 61-8-40z" /><g transform="translate(87 59) rotate(31) scale(12 43)"><path d="M0 0h4324v2580H0z" fill="#ffdb8b" /></g></g></svg>