<svg xmlns="http://www.w3.org/2000/svg" viewBox="0 0 1472 3264"><filter id="b"><feGaussianBlur stdDeviation="12" /></filter><path d="M0 0h1472v3264H0z" fill="#9f9f9f" /><g filter="url(#b)" transform="scale(12.750000) translate(0.5 0.5)"><g transform="translate(58.156490 80.331186) rotate(180.278437) scale(113.602787 34.147474)"><ellipse fill="#3f3f3f" fill-opacity=".501961" cx="0" cy="0" rx="1" ry="1" /></g><ellipse fill="#fdfdfd" fill-opacity=".501961" cx="63" cy="218" rx="114" ry="41" /><g transform="translate(54.916340 167.366453) rotate(179.920802) scale(81.338085 9.849504)"><ellipse fill="#151515" fill-opacity=".501961" cx="0" cy="0" rx="1" ry="1" /></g><g transform="translate(90.814057 132.052133) rotate(274.184344) scale(18.107360 105.480768)"><ellipse fill="#dadada" fill-opacity=".501961" cx="0" cy="0" rx="1" ry="1" /></g><g transform="translate(41.373976 160.734317) rotate(-16.190549) scale(6.009829 19.684473)"><ellipse fill="#000" fill-opacity=".501961" cx="0" cy="0" rx="1" ry="1" /></g><g transform="translate(102.398260 90.236745) rotate(78.272723) scale(22.413386 20.892604)"><ellipse fill="#303030" fill-opacity=".501961" cx="0" cy="0" rx="1" ry="1" /></g><g transform="translate(31 4) rotate(-5) scale(27 36)"><path d="M0 0h1472v3264H0z" fill="#f6f6f6" /></g><ellipse fill="#959595" fill-opacity=".501961" cx="66" cy="76" rx="13" ry="96" /></g></svg>