<svg xmlns="http://www.w3.org/2000/svg" viewBox="0 0 4608 3456"><filter id="b"><feGaussianBlur stdDeviation="12" /></filter><path d="M0 0h4608v3456H0z" fill="#6a6a6a" /><g filter="url(#b)" transform="scale(18.000000) translate(0.5 0.5)"><g transform="translate(100.609606 46.966505) rotate(2.933402) scale(146.869531 45.021900)"><ellipse fill="#fff" fill-opacity=".501961" cx="0" cy="0" rx="1" ry="1" /></g><g transform="translate(160.914940 153.490799) rotate(86.863136) scale(60.326146 255.000000)"><ellipse fill="#000" fill-opacity=".501961" cx="0" cy="0" rx="1" ry="1" /></g><g transform="translate(110.415634 53.804745) rotate(272.338726) scale(34.452541 57.116215)"><ellipse fill="#fff" fill-opacity=".501961" cx="0" cy="0" rx="1" ry="1" /></g><g transform="translate(197.187145 168.265793) rotate(337.805496) scale(103.478363 65.532746)"><ellipse fill="#0c0c0c" fill-opacity=".501961" cx="0" cy="0" rx="1" ry="1" /></g><g transform="translate(197.136574 26.175237) rotate(218.563629) scale(131.747100 26.399093)"><ellipse fill="#8b8b8b" fill-opacity=".501961" cx="0" cy="0" rx="1" ry="1" /></g><g transform="translate(34.406690 1.760623) rotate(147.975303) scale(155.593485 27.704282)"><ellipse fill="gray" fill-opacity=".501961" cx="0" cy="0" rx="1" ry="1" /></g><ellipse fill="#4d4d4d" fill-opacity=".501961" cx="0" cy="107" rx="187" ry="15" /><g transform="translate(114.027187 54.365584) rotate(214.576599) scale(27.061454 25.638141)"><ellipse fill="#fff" fill-opacity=".501961" cx="0" cy="0" rx="1" ry="1" /></g></g></svg>