<svg xmlns="http://www.w3.org/2000/svg" viewBox="0 0 3456 4608"><filter id="b"><feGaussianBlur stdDeviation="12" /></filter><path d="M0 0h3456v4608H0z" fill="#777" /><g filter="url(#b)" transform="scale(18.000000) translate(0.5 0.5)"><g transform="translate(22.348002 54.564212) rotate(264.851617) scale(126.642399 40.416702)"><ellipse fill="#fff" fill-opacity=".501961" cx="0" cy="0" rx="1" ry="1" /></g><ellipse fill="#000" fill-opacity=".501961" cx="157" cy="17" rx="54" ry="54" /><ellipse fill="#000" fill-opacity=".501961" cx="191" cy="207" rx="86" ry="86" /><g transform="translate(31.360718 55.731433) rotate(25.126913) scale(36.431767 93.160831)"><ellipse fill="#fff" fill-opacity=".501961" cx="0" cy="0" rx="1" ry="1" /></g><g transform="translate(91.277931 177.627603) rotate(290.775828) scale(47.909691 25.634227)"><ellipse fill="#f2f2f2" fill-opacity=".501961" cx="0" cy="0" rx="1" ry="1" /></g><ellipse fill="#fff" fill-opacity=".501961" cx="153" cy="186" rx="17" ry="17" /><g transform="translate(17.472100 230.743547) rotate(-30.320409) scale(50.140717 57.573786)"><ellipse fill="#080808" fill-opacity=".501961" cx="0" cy="0" rx="1" ry="1" /></g><g transform="translate(35.528630 92.620442) rotate(167.084989) scale(28.356297 54.049343)"><ellipse fill="#fff" fill-opacity=".501961" cx="0" cy="0" rx="1" ry="1" /></g></g></svg>