<svg xmlns="http://www.w3.org/2000/svg" viewBox="0 0 1920 1080"><filter id="b"><feGaussianBlur stdDeviation="12" /></filter><path d="M0 0h1920v1080H0z" fill="#0d0a04" /><g filter="url(#b)" transform="scale(7.500000) translate(0.5 0.5)"><g transform="translate(126.469682 105.093839) rotate(54.468884) scale(15.177623 32.667716)"><ellipse fill="#cc9d44" fill-opacity=".501961" cx="0" cy="0" rx="1" ry="1" /></g><g transform="translate(137.066698 73.998497) rotate(76.404450) scale(49.036290 15.459031)"><ellipse fill="#644319" fill-opacity=".501961" cx="0" cy="0" rx="1" ry="1" /></g><path fill="#7b7e5f" fill-opacity=".501961" d="M213.181394 119.024529 221.430905 111.188467 200.399192 94.269729 177.424249 103.538805z" /><g transform="translate(120 125) rotate(299) scale(20 19)"><path d="M0 0h1920v1080H0z" fill="#000" /></g><path fill="#b58a34" fill-opacity=".501961" d="M153.464904 113.841185 88.783132 115.576712 107.755592 130.691017 112.994216 89.889599z" /><g transform="translate(213.037046 41.177029) rotate(194.955504) scale(79.619864 52.629217)"><ellipse fill="#000" fill-opacity=".501961" cx="0" cy="0" rx="1" ry="1" /></g><ellipse fill="#000" fill-opacity=".501961" cx="41" cy="57" rx="64" ry="142" /><path d="M0 0h1920v1080H0z" fill="#fff" /></g></svg>