<svg xmlns="http://www.w3.org/2000/svg" viewBox="0 0 1920 1080"><filter id="b"><feGaussianBlur stdDeviation="12" /></filter><path d="M0 0h1920v1080H0z" fill="#222" /><g filter="url(#b)" transform="scale(7.500000) translate(0.5 0.5)"><g transform="translate(156.202442 80.586868) rotate(234.581614) scale(42.750494 26.535960)"><ellipse fill="#e0e0e0" fill-opacity=".501961" cx="0" cy="0" rx="1" ry="1" /></g><g transform="translate(176 133) rotate(333) scale(20 83)"><path d="M0 0h1920v1080H0z" fill="#f6f6f6" /></g><ellipse fill="#000" fill-opacity=".501961" cx="18" cy="69" rx="44" ry="101" /><ellipse fill="#000" fill-opacity=".501961" cx="225" cy="37" rx="55" ry="55" /><g transform="translate(82.827093 75.450753) rotate(7.948379) scale(6.568563 39.319208)"><ellipse fill="#9d9d9d" fill-opacity=".501961" cx="0" cy="0" rx="1" ry="1" /></g><g transform="translate(142.391999 84.023875) rotate(29.241577) scale(23.263522 10.833311)"><ellipse fill="#0b0b0b" fill-opacity=".501961" cx="0" cy="0" rx="1" ry="1" /></g><path fill="#fafafa" fill-opacity=".501961" d="M162.070952 47.73459 180.2706 63.186528 165.887153 72.983076 121.827136 50.189447z" /><path fill="#f1f1f1" fill-opacity=".501961" d="M83.948283 2.94231 75.11993 13.663473 30.603479-16H44.767354z" /></g></svg>