<svg xmlns="http://www.w3.org/2000/svg" viewBox="0 0 1920 1080"><filter id="b"><feGaussianBlur stdDeviation="12" /></filter><path d="M0 0h1920v1080H0z" fill="#211b10" /><g filter="url(#b)" transform="scale(7.500000) translate(0.5 0.5)"><g transform="translate(127 86) rotate(134) scale(114 46)"><path d="M0 0h1920v1080H0z" fill="#fabe65" /></g><path fill="#f4c983" fill-opacity=".501961" d="M187.282887 31.529784 171.852611 84.674539 170.016503 79.556973 180.859102-16z" /><g transform="translate(0.000000 69.373706) rotate(231.707911) scale(66.224856 140.422634)"><ellipse fill="#000" fill-opacity=".501961" cx="0" cy="0" rx="1" ry="1" /></g><path fill="#f2cc84" fill-opacity=".501961" d="M151 51 105 159l6-84z" /><ellipse fill="#000" fill-opacity=".501961" cx="223" cy="115" rx="46" ry="138" /><path d="M0 0h1920v1080H0z" fill="#000709" /><path fill="#533211" fill-opacity=".501961" d="M151 132l-9-90L184-8z" /><path d="M0 0h1920v1080H0z" fill="#ffc75b" /></g></svg>