<svg xmlns="http://www.w3.org/2000/svg" viewBox="0 0 1920 1080"><filter id="b"><feGaussianBlur stdDeviation="12" /></filter><path d="M0 0h1920v1080H0z" fill="#4b4b4b" /><g filter="url(#b)" transform="scale(7.500000) translate(0.5 0.5)"><g transform="translate(169.640040 87.705482) rotate(273.155158) scale(86.895306 36.788711)"><ellipse fill="#fff" fill-opacity=".501961" cx="0" cy="0" rx="1" ry="1" /></g><g transform="translate(49.160116 61.287357) rotate(100.513021) scale(173.610734 64.422576)"><ellipse fill="#000" fill-opacity=".501961" cx="0" cy="0" rx="1" ry="1" /></g><g transform="translate(229.880123 19.883801) rotate(87.575526) scale(48.963767 10.759773)"><ellipse fill="#fff" fill-opacity=".501961" cx="0" cy="0" rx="1" ry="1" /></g><ellipse fill="#000" fill-opacity=".501961" cx="249" cy="112" rx="48" ry="48" /><path fill="#000" fill-opacity=".501961" d="M149 87 112 57l40-8z" /><ellipse fill="#e7e7e7" fill-opacity=".501961" cx="177" cy="82" rx="26" ry="70" /><g transform="translate(221.559642 67.098126) rotate(115.743019) scale(22.328549 17.916402)"><ellipse fill="#aeaeae" fill-opacity=".501961" cx="0" cy="0" rx="1" ry="1" /></g><ellipse fill="#000" fill-opacity=".501961" cx="32" cy="84" rx="79" ry="79" /></g></svg>