<svg xmlns="http://www.w3.org/2000/svg" viewBox="0 0 1920 1080"><filter id="b"><feGaussianBlur stdDeviation="12" /></filter><path d="M0 0h1920v1080H0z" fill="#0f0f0f" /><g filter="url(#b)" transform="scale(7.500000) translate(0.5 0.5)"><g transform="translate(122.668435 74.837813) rotate(44.472403) scale(23.369752 30.611958)"><ellipse fill="#858585" fill-opacity=".501961" cx="0" cy="0" rx="1" ry="1" /></g><g transform="translate(182 85) rotate(284) scale(57 35)"><path d="M0 0h1920v1080H0z" fill="#535353" /></g><path fill="gray" fill-opacity=".501961" d="M191.242051 81.568434 176.910728 159 216.52676 22.451882 222.746087-16z" /><g transform="translate(132.635218 116.040283) rotate(152.986656) scale(13.598049 41.340019)"><ellipse fill="#000" fill-opacity=".501961" cx="0" cy="0" rx="1" ry="1" /></g><ellipse fill="#000" fill-opacity=".501961" cx="37" cy="88" rx="58" ry="143" /><g transform="translate(232.053596 106.768900) rotate(186.411729) scale(30.729425 121.590319)"><ellipse fill="#000" fill-opacity=".501961" cx="0" cy="0" rx="1" ry="1" /></g><path fill="#838383" fill-opacity=".501961" d="M98.1205 104.953314 94.869488 81.457199 120.741045 51.714373 106.435468 109.092931z" /><path fill="#727272" fill-opacity=".501961" d="M140 103 108 63l37-8z" /></g></svg>