<svg xmlns="http://www.w3.org/2000/svg" viewBox="0 0 1920 1080"><filter id="b"><feGaussianBlur stdDeviation="12" /></filter><path d="M0 0h1920v1080H0z" fill="#18160a" /><g filter="url(#b)" transform="scale(7.500000) translate(0.5 0.5)"><g transform="translate(30 116) rotate(172) scale(23 26)"><path d="M0 0h1920v1080H0z" fill="#ffc" /></g><ellipse fill="#b2883a" fill-opacity=".501961" cx="123" cy="88" rx="19" ry="47" /><g transform="translate(186.233425 116.197211) rotate(-19.320836) scale(16.016029 7.486301)"><ellipse fill="#c9c7ae" fill-opacity=".501961" cx="0" cy="0" rx="1" ry="1" /></g><path d="M0 0h1920v1080H0z" fill="#ffc564" /><path fill="#000" fill-opacity=".501961" d="M253 137 271-14 52-16z" /><path fill="#000005" fill-opacity=".501961" d="M240 110 1e2 79l81-53z" /><g transform="translate(55.851239 14.678363) rotate(273.904482) scale(81.186504 55.249050)"><ellipse fill="#000" fill-opacity=".501961" cx="0" cy="0" rx="1" ry="1" /></g><g transform="translate(118 57) rotate(243) scale(13 36)"><path d="M0 0h1920v1080H0z" fill="#dbac69" /></g></g></svg>