<svg xmlns="http://www.w3.org/2000/svg" viewBox="0 0 1920 1080"><filter id="b"><feGaussianBlur stdDeviation="12" /></filter><path d="M0 0h1920v1080H0z" fill="#2a2a2a" /><g filter="url(#b)" transform="scale(7.500000) translate(0.5 0.5)"><g transform="translate(191.054687 87.287065) rotate(52.332559) scale(28.175125 40.939971)"><ellipse fill="#dbdbdb" fill-opacity=".501961" cx="0" cy="0" rx="1" ry="1" /></g><g transform="translate(112.424271 65.040549) rotate(259.750729) scale(40.059400 12.402644)"><ellipse fill="#d8d8d8" fill-opacity=".501961" cx="0" cy="0" rx="1" ry="1" /></g><ellipse fill="#a7a7a7" fill-opacity=".501961" cx="38" cy="20" rx="9" ry="124" /><g transform="translate(204 74) rotate(127) scale(19 61)"><path d="M0 0h1920v1080H0z" fill="#fff" /></g><g transform="translate(211.814580 111.854167) rotate(221.695044) scale(42.365849 14.066250)"><ellipse fill="#000" fill-opacity=".501961" cx="0" cy="0" rx="1" ry="1" /></g><path fill="#000" fill-opacity=".501961" d="M271 1 14-16 245 72z" /><g transform="translate(66.485802 72.130213) rotate(263.503847) scale(43.998141 28.628312)"><ellipse fill="#000" fill-opacity=".501961" cx="0" cy="0" rx="1" ry="1" /></g><path fill="#fff" fill-opacity=".501961" d="M168.031365 86.769858 154.585815 137.542567 190.738571 109.272412 179.128748 94.40747z" /></g></svg>