<svg xmlns="http://www.w3.org/2000/svg" viewBox="0 0 1920 1080"><filter id="b"><feGaussianBlur stdDeviation="12" /></filter><path d="M0 0h1920v1080H0z" fill="#535e58" /><g filter="url(#b)" transform="scale(7.500000) translate(0.5 0.5)"><g transform="translate(179.141423 103.088810) rotate(235.809553) scale(90.256662 38.111525)"><ellipse fill="#a0d2b1" fill-opacity=".501961" cx="0" cy="0" rx="1" ry="1" /></g><g transform="translate(48.215163 124.104254) rotate(260.348433) scale(33.270184 98.181980)"><ellipse fill="#000008" fill-opacity=".501961" cx="0" cy="0" rx="1" ry="1" /></g><g transform="translate(234.351024 17.347953) rotate(30.660761) scale(73.699145 26.998045)"><ellipse fill="#000007" fill-opacity=".501961" cx="0" cy="0" rx="1" ry="1" /></g><g transform="translate(0.000000 35.735148) rotate(72.990686) scale(18.515678 46.677905)"><ellipse fill="#000" fill-opacity=".501961" cx="0" cy="0" rx="1" ry="1" /></g><ellipse fill="#a37377" fill-opacity=".501961" cx="109" cy="33" rx="67" ry="47" /><g transform="translate(144 141) rotate(119) scale(151 27)"><path d="M0 0h1920v1080H0z" fill="#92e5b1" /></g><g transform="translate(56.258248 137.687044) rotate(241.435201) scale(17.389057 64.652582)"><ellipse fill="#00000e" fill-opacity=".501961" cx="0" cy="0" rx="1" ry="1" /></g><g transform="translate(69 23) rotate(50) scale(13 97)"><path d="M0 0h1920v1080H0z" fill="#a8abbf" /></g></g></svg>