<svg xmlns="http://www.w3.org/2000/svg" viewBox="0 0 1920 1080"><filter id="b"><feGaussianBlur stdDeviation="12" /></filter><path d="M0 0h1920v1080H0z" fill="#252525" /><g filter="url(#b)" transform="scale(7.500000) translate(0.5 0.5)"><g transform="translate(139.100466 34.528270) rotate(61.092420) scale(83.845767 35.177428)"><ellipse fill="#7f7f7f" fill-opacity=".501961" cx="0" cy="0" rx="1" ry="1" /></g><g transform="translate(223.694126 51.949977) rotate(263.300124) scale(178.302542 38.622462)"><ellipse fill="#000" fill-opacity=".501961" cx="0" cy="0" rx="1" ry="1" /></g><g transform="translate(22.424123 100.954530) rotate(253.344701) scale(169.764016 36.894806)"><ellipse fill="#000" fill-opacity=".501961" cx="0" cy="0" rx="1" ry="1" /></g><g transform="translate(92.233180 64.994865) rotate(278.728781) scale(68.368360 15.928011)"><ellipse fill="#5e5e5e" fill-opacity=".501961" cx="0" cy="0" rx="1" ry="1" /></g><g transform="translate(204.593957 76.512244) rotate(304.258863) scale(21.071751 13.919644)"><ellipse fill="#6d6d6d" fill-opacity=".501961" cx="0" cy="0" rx="1" ry="1" /></g><path fill="#070707" fill-opacity=".501961" d="M131 49 68 91l59-5z" /><g transform="translate(140 31) rotate(463) scale(26 20)"><path d="M0 0h1920v1080H0z" fill="#020202" /></g><path fill="#5a5a5a" fill-opacity=".501961" d="M19 92l145-3-35 31z" /></g></svg>