<svg xmlns="http://www.w3.org/2000/svg" viewBox="0 0 1920 1080"><filter id="b"><feGaussianBlur stdDeviation="12" /></filter><path d="M0 0h1920v1080H0z" fill="#2a3131" /><g filter="url(#b)" transform="scale(7.500000) translate(0.5 0.5)"><g transform="translate(105.178815 78.309733) rotate(380.246010) scale(54.286877 17.714667)"><ellipse fill="#ede5e1" fill-opacity=".501961" cx="0" cy="0" rx="1" ry="1" /></g><g transform="translate(210.336382 129.728260) rotate(97.476451) scale(16.010322 23.415684)"><ellipse fill="#ffdbc8" fill-opacity=".501961" cx="0" cy="0" rx="1" ry="1" /></g><path fill="#edd7bf" fill-opacity=".501961" d="M139.815306 101.527027 151.870538 83.88466 97.880511 96.887457l28.156025-86.015863z" /><g transform="translate(7.831147 82.075826) rotate(79.424370) scale(255.000000 31.141688)"><ellipse fill="#000" fill-opacity=".501961" cx="0" cy="0" rx="1" ry="1" /></g><ellipse fill="#000" fill-opacity=".501961" cx="243" cy="68" rx="15" ry="142" /><path fill="#8aa9d6" fill-opacity=".501961" d="M24.014972 51.083486 28.526914 69.394372 119.177243 73.196663 103.836755 63.206701z" /><g transform="translate(76.199193 93.290780) rotate(160.588929) scale(44.185082 4.543463)"><ellipse fill="#89b2d0" fill-opacity=".501961" cx="0" cy="0" rx="1" ry="1" /></g><g transform="translate(70.283041 133.004922) rotate(-6.115165) scale(74.965048 31.576104)"><ellipse fill="#000" fill-opacity=".501961" cx="0" cy="0" rx="1" ry="1" /></g></g></svg>