<svg xmlns="http://www.w3.org/2000/svg" viewBox="0 0 1920 1080"><filter id="b"><feGaussianBlur stdDeviation="12" /></filter><path d="M0 0h1920v1080H0z" fill="#7bb2df" /><g filter="url(#b)" transform="scale(7.500000) translate(0.5 0.5)"><g transform="translate(129.173844 28.803779) rotate(340.580194) scale(94.349469 56.210693)"><ellipse fill="#e3ffff" fill-opacity=".501961" cx="0" cy="0" rx="1" ry="1" /></g><g transform="translate(9.698509 25.513255) rotate(201.006139) scale(20.186273 134.206324)"><ellipse fill="#181204" fill-opacity=".501961" cx="0" cy="0" rx="1" ry="1" /></g><g transform="translate(223.483248 118.411585) rotate(-15.203498) scale(251.449112 33.638888)"><ellipse fill="#1058ad" fill-opacity=".501961" cx="0" cy="0" rx="1" ry="1" /></g><g transform="translate(255.000000 86.340582) rotate(112.226902) scale(155.638209 32.585057)"><ellipse fill="#2666ae" fill-opacity=".501961" cx="0" cy="0" rx="1" ry="1" /></g><g transform="translate(137.483300 13.138744) rotate(245.646738) scale(40.654347 63.879054)"><ellipse fill="#d6ffff" fill-opacity=".501961" cx="0" cy="0" rx="1" ry="1" /></g><g transform="translate(107.071471 106.809245) rotate(79.383891) scale(28.367356 135.664504)"><ellipse fill="#60aaf0" fill-opacity=".501961" cx="0" cy="0" rx="1" ry="1" /></g><g transform="translate(113.034548 69.942019) rotate(82.476875) scale(26.583262 92.409801)"><ellipse fill="#9eddff" fill-opacity=".501961" cx="0" cy="0" rx="1" ry="1" /></g><g transform="translate(11 86) rotate(108) scale(169 15)"><path d="M0 0h1920v1080H0z" fill="#5f86bb" /></g></g></svg>