<svg xmlns="http://www.w3.org/2000/svg" viewBox="0 0 4912 2760"><filter id="b"><feGaussianBlur stdDeviation="12" /></filter><path d="M0 0h4912v2760H0z" fill="#a57573" /><g filter="url(#b)" transform="scale(19.187500) translate(0.5 0.5)"><g transform="translate(72.546680 33.641358) rotate(103.409081) scale(39.232802 86.966251)"><ellipse fill="#a50000" fill-opacity=".501961" cx="0" cy="0" rx="1" ry="1" /></g><g transform="translate(208.620976 23.348355) rotate(231.917374) scale(223.830623 49.628076)"><ellipse fill="#d2f1f3" fill-opacity=".501961" cx="0" cy="0" rx="1" ry="1" /></g><ellipse fill="#000" fill-opacity=".501961" cx="16" cy="127" rx="19" ry="42" /><g transform="translate(88.937805 112.298445) rotate(119.156133) scale(34.913444 70.199839)"><ellipse fill="#b6e4e5" fill-opacity=".501961" cx="0" cy="0" rx="1" ry="1" /></g><g transform="translate(46.748625 23.710267) rotate(380.959308) scale(102.639189 39.311129)"><ellipse fill="#900" fill-opacity=".501961" cx="0" cy="0" rx="1" ry="1" /></g><g transform="translate(226.285278 142.000000) rotate(207.095092) scale(21.297441 16.607275)"><ellipse fill="#ccfbf7" fill-opacity=".501961" cx="0" cy="0" rx="1" ry="1" /></g><ellipse fill="#000" fill-opacity=".501961" cx="189" cy="142" rx="16" ry="12" /><g transform="translate(18.101620 121.025932) rotate(283.246346) scale(23.167747 19.683842)"><ellipse fill="#000914" fill-opacity=".501961" cx="0" cy="0" rx="1" ry="1" /></g></g></svg>