<svg xmlns="http://www.w3.org/2000/svg" viewBox="0 0 1920 1080"><filter id="b"><feGaussianBlur stdDeviation="12" /></filter><path d="M0 0h1920v1080H0z" fill="#544e41" /><g filter="url(#b)" transform="scale(7.500000) translate(0.5 0.5)"><g transform="translate(76.982711 26.396740) rotate(304.047580) scale(17.643745 58.660196)"><ellipse fill="#fff" fill-opacity=".501961" cx="0" cy="0" rx="1" ry="1" /></g><ellipse fill="#ffffb6" fill-opacity=".501961" cx="181" cy="85" rx="44" ry="23" /><g transform="translate(33.943389 102.165154) rotate(242.417834) scale(32.851566 64.944319)"><ellipse fill="#000" fill-opacity=".501961" cx="0" cy="0" rx="1" ry="1" /></g><ellipse fill="#000104" fill-opacity=".501961" cx="182" cy="15" rx="80" ry="32" /><g transform="translate(160 101) rotate(205) scale(32 53)"><path d="M0 0h1920v1080H0z" fill="#ffedc3" /></g><g transform="translate(28.958442 114.749966) rotate(305.574828) scale(43.586586 61.559876)"><ellipse fill="#000401" fill-opacity=".501961" cx="0" cy="0" rx="1" ry="1" /></g><path d="M0 0h1920v1080H0z" fill="#fed4cc" /><path fill="#75797b" fill-opacity=".501961" d="M-16 7 131 78 23-16z" /></g></svg>