<svg xmlns="http://www.w3.org/2000/svg" viewBox="0 0 1920 1080"><filter id="b"><feGaussianBlur stdDeviation="12" /></filter><path d="M0 0h1920v1080H0z" fill="#a3a977" /><g filter="url(#b)" transform="scale(7.500000) translate(0.5 0.5)"><g transform="translate(42.414750 23.875957) rotate(323.147058) scale(61.479244 44.361521)"><ellipse fill="#fdfff2" fill-opacity=".501961" cx="0" cy="0" rx="1" ry="1" /></g><g transform="translate(248.413310 91.696521) rotate(248.702649) scale(29.416684 51.951063)"><ellipse fill="#323f0b" fill-opacity=".501961" cx="0" cy="0" rx="1" ry="1" /></g><g transform="translate(21.637575 139.562455) rotate(-3.396734) scale(43.271850 28.976560)"><ellipse fill="#253300" fill-opacity=".501961" cx="0" cy="0" rx="1" ry="1" /></g><g transform="translate(200.271715 51.682524) rotate(149.101748) scale(18.540914 34.081645)"><ellipse fill="#fff" fill-opacity=".501961" cx="0" cy="0" rx="1" ry="1" /></g><path fill="#484000" fill-opacity=".501961" d="M165 3 97 116 96 53z" /><g transform="translate(228 20) rotate(185) scale(29 41)"><path d="M0 0h1920v1080H0z" fill="#061200" /></g><path fill="#fff" fill-opacity=".501961" d="M49 1e2l43 26 2-77z" /><g transform="translate(132 138) rotate(250) scale(38 57)"><path d="M0 0h1920v1080H0z" fill="#554c00" /></g></g></svg>