<svg xmlns="http://www.w3.org/2000/svg" viewBox="0 0 1920 1080"><filter id="b"><feGaussianBlur stdDeviation="12" /></filter><path d="M0 0h1920v1080H0z" fill="#272320" /><g filter="url(#b)" transform="scale(7.500000) translate(0.5 0.5)"><g transform="translate(107.326562 80.766556) rotate(120.085798) scale(28.250411 123.378484)"><ellipse fill="#957873" fill-opacity=".501961" cx="0" cy="0" rx="1" ry="1" /></g><g transform="translate(196.380658 51.122548) rotate(325.967645) scale(54.680875 99.630475)"><ellipse fill="#000" fill-opacity=".501961" cx="0" cy="0" rx="1" ry="1" /></g><path fill="#ffd9ff" fill-opacity=".501961" d="M154 77l-43-5-4-23z" /><g transform="translate(21 45) rotate(207) scale(46 15)"><path d="M0 0h1920v1080H0z" fill="#abd6ff" /></g><path fill="#f7f9e3" fill-opacity=".501961" d="M73.604476 47.602836 98.457781 60.123099 61.330047 63.090673 62.881259 45.554752z" /><ellipse fill="#11140d" fill-opacity=".501961" cx="85" cy="143" rx="77" ry="77" /><g transform="translate(184.204596 139.506214) rotate(79.108414) scale(9.695702 40.579638)"><ellipse fill="#d29a4c" fill-opacity=".501961" cx="0" cy="0" rx="1" ry="1" /></g><ellipse fill="#000" fill-opacity=".501961" cx="214" cy="51" rx="69" ry="69" /></g></svg>