<svg xmlns="http://www.w3.org/2000/svg" viewBox="0 0 1920 1080"><filter id="b"><feGaussianBlur stdDeviation="12" /></filter><path d="M0 0h1920v1080H0z" fill="#987c57" /><g filter="url(#b)" transform="scale(7.500000) translate(0.5 0.5)"><g transform="translate(186.754149 95.083176) rotate(-1.224795) scale(24.954720 63.576967)"><ellipse fill="#fff" fill-opacity=".501961" cx="0" cy="0" rx="1" ry="1" /></g><ellipse fill="#000" fill-opacity=".501961" cx="27" cy="99" rx="49" ry="28" /><path fill="#ffeba3" fill-opacity=".501961" d="M144 159 271 67-16 142z" /><g transform="translate(23.960566 10.575443) rotate(187.864390) scale(60.098309 25.175126)"><ellipse fill="#150800" fill-opacity=".501961" cx="0" cy="0" rx="1" ry="1" /></g><g transform="translate(244.908533 19.004484) rotate(-60.311804) scale(35.231904 63.066139)"><ellipse fill="#362000" fill-opacity=".501961" cx="0" cy="0" rx="1" ry="1" /></g><g transform="translate(131 90) rotate(349) scale(37 22)"><path d="M0 0h1920v1080H0z" fill="#000" /></g><ellipse fill="#fff" fill-opacity=".501961" cx="183" cy="81" rx="20" ry="38" /><g transform="translate(220.597802 143.000000) rotate(246.398105) scale(17.429845 68.603435)"><ellipse fill="#261500" fill-opacity=".501961" cx="0" cy="0" rx="1" ry="1" /></g></g></svg>