<svg xmlns="http://www.w3.org/2000/svg" viewBox="0 0 1920 1080"><filter id="b"><feGaussianBlur stdDeviation="12" /></filter><path d="M0 0h1920v1080H0z" fill="#5a563c" /><g filter="url(#b)" transform="scale(7.500000) translate(0.5 0.5)"><g transform="translate(249.850540 32.851984) rotate(172.006302) scale(35.837665 54.086058)"><ellipse fill="#c9e97b" fill-opacity=".501961" cx="0" cy="0" rx="1" ry="1" /></g><ellipse fill="#cced79" fill-opacity=".501961" cx="174" cy="31" rx="24" ry="44" /><path d="M0 0h1920v1080H0z" fill="#c8707c" /><g transform="translate(40 41) rotate(180) scale(37 11)"><path d="M0 0h1920v1080H0z" fill="#fff" /></g><ellipse fill="#0a1900" fill-opacity=".501961" cx="22" cy="21" rx="111" ry="14" /><g transform="translate(122.786913 122.165749) rotate(22.056455) scale(33.256309 59.347599)"><ellipse fill="#1d1e13" fill-opacity=".501961" cx="0" cy="0" rx="1" ry="1" /></g><path fill="#b0cac7" fill-opacity=".501961" d="M244.626083 107.953668 223.918992 138.645924 215.076063 102.830888 250.171156 84.657996z" /><g transform="translate(33.474269 114.989707) rotate(365.462544) scale(24.321314 70.466405)"><ellipse fill="#73042a" fill-opacity=".501961" cx="0" cy="0" rx="1" ry="1" /></g></g></svg>