<svg xmlns="http://www.w3.org/2000/svg" viewBox="0 0 1426 1334"><filter id="b"><feGaussianBlur stdDeviation="12" /></filter><path d="M0 0h1426v1334H0z" fill="#616161" /><g filter="url(#b)" transform="scale(5.570312) translate(0.5 0.5)"><g transform="translate(248.558939 121.230367) rotate(3.773144) scale(23.318848 255.000000)"><ellipse fill="#fff" fill-opacity=".501961" cx="0" cy="0" rx="1" ry="1" /></g><g transform="translate(98.705760 37.972207) rotate(147.902026) scale(145.733846 56.559700)"><ellipse fill="#000" fill-opacity=".501961" cx="0" cy="0" rx="1" ry="1" /></g><g transform="translate(13.436485 234.968872) rotate(281.396036) scale(31.520155 57.315991)"><ellipse fill="#fff" fill-opacity=".501961" cx="0" cy="0" rx="1" ry="1" /></g><ellipse fill="#7c7c7c" fill-opacity=".501961" cx="115" cy="108" rx="67" ry="67" /><ellipse fill="#000" fill-opacity=".501961" cx="84" cy="3" rx="46" ry="46" /><g transform="translate(236.749003 34.198542) rotate(70.286696) scale(134.900804 11.345197)"><ellipse fill="#f2f2f2" fill-opacity=".501961" cx="0" cy="0" rx="1" ry="1" /></g><path fill="#000" fill-opacity=".501961" d="M54 170 47-16-13 90z" /><g transform="translate(208.225819 64.470271) rotate(80.452266) scale(44.976105 26.040598)"><ellipse fill="#1d1d1d" fill-opacity=".501961" cx="0" cy="0" rx="1" ry="1" /></g></g></svg>