<svg xmlns="http://www.w3.org/2000/svg" viewBox="0 0 4912 2760"><filter id="b"><feGaussianBlur stdDeviation="12" /></filter><path d="M0 0h4912v2760H0z" fill="#848484" /><g filter="url(#b)" transform="scale(19.187500) translate(0.5 0.5)"><g transform="translate(102.221059 11.544819) rotate(169.349009) scale(158.265685 71.653234)"><ellipse fill="#fff" fill-opacity=".501961" cx="0" cy="0" rx="1" ry="1" /></g><g transform="translate(137.830079 121.175359) rotate(81.247483) scale(46.851434 250.270971)"><ellipse fill="#000" fill-opacity=".501961" cx="0" cy="0" rx="1" ry="1" /></g><g transform="translate(225.940323 54.077216) rotate(330.677912) scale(107.920857 16.515688)"><ellipse fill="#000" fill-opacity=".501961" cx="0" cy="0" rx="1" ry="1" /></g><g transform="translate(92.298087 24.873248) rotate(80.732577) scale(57.373718 163.696881)"><ellipse fill="#fff" fill-opacity=".501961" cx="0" cy="0" rx="1" ry="1" /></g><g transform="translate(119.290089 131.419880) rotate(184.527547) scale(174.370996 45.012017)"><ellipse fill="#000" fill-opacity=".501961" cx="0" cy="0" rx="1" ry="1" /></g><g transform="translate(145.710710 49.012001) rotate(70.160543) scale(25.362389 73.213766)"><ellipse fill="#fff" fill-opacity=".501961" cx="0" cy="0" rx="1" ry="1" /></g><ellipse fill="#060606" fill-opacity=".501961" cx="243" cy="73" rx="42" ry="42" /><ellipse fill="#fff" fill-opacity=".501961" cx="28" cy="32" rx="182" ry="54" /></g></svg>