<svg xmlns="http://www.w3.org/2000/svg" viewBox="0 0 2760 4912"><filter id="b"><feGaussianBlur stdDeviation="12" /></filter><path d="M0 0h2760v4912H0z" fill="#757575" /><g filter="url(#b)" transform="scale(19.187500) translate(0.5 0.5)"><g transform="translate(95.520387 158.454463) rotate(266.047664) scale(66.721579 27.282826)"><ellipse fill="#000" fill-opacity=".501961" cx="0" cy="0" rx="1" ry="1" /></g><ellipse fill="#f5f5f5" fill-opacity=".501961" cx="104" cy="243" rx="143" ry="24" /><g transform="translate(1 121) rotate(14) scale(65 75)"><path d="M0 0h2760v4912H0z" fill="#fff" /></g><path fill="#fff" fill-opacity=".501961" d="M159 166 134 72l-13 93z" /><ellipse fill="#000" fill-opacity=".501961" cx="103" cy="202" rx="50" ry="17" /><g transform="translate(61.111662 10.967549) rotate(182.146159) scale(143.000000 29.911812)"><ellipse fill="#2e2e2e" fill-opacity=".501961" cx="0" cy="0" rx="1" ry="1" /></g><g transform="translate(40.650658 107.234976) rotate(361.450669) scale(33.062636 45.464099)"><ellipse fill="#aeaeae" fill-opacity=".501961" cx="0" cy="0" rx="1" ry="1" /></g><path d="M0 0h2760v4912H0z" fill="#000" /></g></svg>