<svg xmlns="http://www.w3.org/2000/svg" viewBox="0 0 4912 2760"><filter id="b"><feGaussianBlur stdDeviation="12" /></filter><path d="M0 0h4912v2760H0z" fill="#959595" /><g filter="url(#b)" transform="scale(19.187500) translate(0.5 0.5)"><g transform="translate(8.993926 56.230566) rotate(190.369483) scale(72.309876 255.000000)"><ellipse fill="#fff" fill-opacity=".501961" cx="0" cy="0" rx="1" ry="1" /></g><g transform="translate(212.291275 98.251400) rotate(6.964848) scale(105.547285 134.734141)"><ellipse fill="#4e4e4e" fill-opacity=".501961" cx="0" cy="0" rx="1" ry="1" /></g><g transform="translate(196.533875 41.591226) rotate(55.596428) scale(19.272314 58.039930)"><ellipse fill="#a6a6a6" fill-opacity=".501961" cx="0" cy="0" rx="1" ry="1" /></g><path fill="#0c0c0c" fill-opacity=".501961" d="M106.974313 158 136.832831 89.163682 152.436541 73.71957 164.604457 83.227703z" /><path d="M0 0h4912v2760H0z" fill="#ddd" /><path fill="#1d1d1d" fill-opacity=".501961" d="M89 104l36 7L70 69z" /><g transform="translate(245.892897 102.385334) rotate(237.519674) scale(40.500486 20.271037)"><ellipse fill="#2f2f2f" fill-opacity=".501961" cx="0" cy="0" rx="1" ry="1" /></g><path fill="#e6e6e6" fill-opacity=".501961" d="M106 123 27 138-13-16z" /></g></svg>