<svg xmlns="http://www.w3.org/2000/svg" viewBox="0 0 4128 2322"><filter id="b"><feGaussianBlur stdDeviation="12" /></filter><path d="M0 0h4128v2322H0z" fill="#878787" /><g filter="url(#b)" transform="scale(16.125000) translate(0.5 0.5)"><g transform="translate(89.785972 125.469984) rotate(272.851693) scale(60.626445 93.910740)"><ellipse fill="#fff" fill-opacity=".501961" cx="0" cy="0" rx="1" ry="1" /></g><g transform="translate(230.767537 90.764739) rotate(74.038307) scale(253.348575 53.544476)"><ellipse fill="#252525" fill-opacity=".501961" cx="0" cy="0" rx="1" ry="1" /></g><g transform="translate(88.524553 12.597884) rotate(363.710337) scale(255.000000 30.605417)"><ellipse fill="#434343" fill-opacity=".501961" cx="0" cy="0" rx="1" ry="1" /></g><g transform="translate(232.831379 125.700798) rotate(338.146577) scale(22.534536 70.584148)"><ellipse fill="#9e9e9e" fill-opacity=".501961" cx="0" cy="0" rx="1" ry="1" /></g><g transform="translate(192.395799 101.424979) rotate(260.695152) scale(88.241689 9.402217)"><ellipse fill="#000" fill-opacity=".501961" cx="0" cy="0" rx="1" ry="1" /></g><g transform="translate(82.995499 137.443508) rotate(0.729879) scale(64.035334 40.101730)"><ellipse fill="#f9f9f9" fill-opacity=".501961" cx="0" cy="0" rx="1" ry="1" /></g><ellipse fill="#000" fill-opacity=".501961" cx="181" cy="45" rx="16" ry="16" /><g transform="translate(105.379047 61.728061) rotate(202.138005) scale(83.560969 22.043571)"><ellipse fill="#989898" fill-opacity=".501961" cx="0" cy="0" rx="1" ry="1" /></g></g></svg>