<svg xmlns="http://www.w3.org/2000/svg" viewBox="0 0 2048 1151"><filter id="b"><feGaussianBlur stdDeviation="12" /></filter><path d="M0 0h2048v1151H0z" fill="#8e8e8e" /><g filter="url(#b)" transform="scale(8.000000) translate(0.5 0.5)"><g transform="translate(102.131589 26.785727) rotate(138.676695) scale(68.362139 56.701277)"><ellipse fill="#fff" fill-opacity=".501961" cx="0" cy="0" rx="1" ry="1" /></g><g transform="translate(237.727871 35.240419) rotate(-2.009540) scale(76.563613 50.498824)"><ellipse fill="#000" fill-opacity=".501961" cx="0" cy="0" rx="1" ry="1" /></g><g transform="translate(101 101) rotate(160) scale(143 23)"><path d="M0 0h2048v1151H0z" fill="#080808" /></g><g transform="translate(98.515603 23.367280) rotate(307.742715) scale(53.717652 60.748839)"><ellipse fill="#fff" fill-opacity=".501961" cx="0" cy="0" rx="1" ry="1" /></g><path fill="#ebebeb" fill-opacity=".501961" d="M161 82l44-9 66 69z" /><g transform="translate(160.984943 82.039294) rotate(191.225906) scale(14.738337 56.145358)"><ellipse fill="#2f2f2f" fill-opacity=".501961" cx="0" cy="0" rx="1" ry="1" /></g><ellipse fill="#ececec" fill-opacity=".501961" cx="232" cy="128" rx="17" ry="34" /><g transform="translate(255 104) rotate(69) scale(49 17)"><path d="M0 0h2048v1151H0z" fill="#000" /></g></g></svg>