<svg xmlns="http://www.w3.org/2000/svg" viewBox="0 0 2760 4912"><filter id="b"><feGaussianBlur stdDeviation="12" /></filter><path d="M0 0h2760v4912H0z" fill="#838383" /><g filter="url(#b)" transform="scale(19.187500) translate(0.5 0.5)"><g transform="translate(91.999959 111.511348) rotate(349.938926) scale(24.542130 143.000000)"><ellipse fill="#fff" fill-opacity=".501961" cx="0" cy="0" rx="1" ry="1" /></g><g transform="translate(11.082780 67.745773) rotate(-20.563388) scale(31.899906 112.519566)"><ellipse fill="#000" fill-opacity=".501961" cx="0" cy="0" rx="1" ry="1" /></g><g transform="translate(139.993899 87.347851) rotate(179.270581) scale(26.698880 107.618301)"><ellipse fill="#000" fill-opacity=".501961" cx="0" cy="0" rx="1" ry="1" /></g><g transform="translate(107.255600 237.589408) rotate(274.816068) scale(15.303103 58.658143)"><ellipse fill="#fff" fill-opacity=".501961" cx="0" cy="0" rx="1" ry="1" /></g><g transform="translate(78.419713 45.791088) rotate(265.570776) scale(76.188480 29.899338)"><ellipse fill="#fff" fill-opacity=".501961" cx="0" cy="0" rx="1" ry="1" /></g><g transform="translate(16.263713 251.091469) rotate(66.854972) scale(49.794752 33.958568)"><ellipse fill="#1f1f1f" fill-opacity=".501961" cx="0" cy="0" rx="1" ry="1" /></g><g transform="translate(57.338148 155.918213) rotate(215.936527) scale(47.540115 34.903887)"><ellipse fill="#6e6e6e" fill-opacity=".501961" cx="0" cy="0" rx="1" ry="1" /></g><g transform="translate(0.000000 97.310109) rotate(357.935017) scale(58.917361 33.608619)"><ellipse fill="#000" fill-opacity=".501961" cx="0" cy="0" rx="1" ry="1" /></g></g></svg>