<svg xmlns="http://www.w3.org/2000/svg" viewBox="0 0 4912 2760"><filter id="b"><feGaussianBlur stdDeviation="12" /></filter><path d="M0 0h4912v2760H0z" fill="#929292" /><g filter="url(#b)" transform="scale(19.187500) translate(0.5 0.5)"><g transform="translate(48.909139 16.994031) rotate(101.755065) scale(38.875214 86.462118)"><ellipse fill="#000" fill-opacity=".501961" cx="0" cy="0" rx="1" ry="1" /></g><ellipse fill="#fff" fill-opacity=".501961" cx="176" cy="109" rx="45" ry="87" /><g transform="translate(34.474660 101.768838) rotate(125.175714) scale(70.771930 31.889862)"><ellipse fill="#fcfcfc" fill-opacity=".501961" cx="0" cy="0" rx="1" ry="1" /></g><ellipse fill="#232323" fill-opacity=".501961" cx="105" cy="106" rx="25" ry="136" /><g transform="translate(35.539522 10.270400) rotate(149.744139) scale(64.621613 31.126413)"><ellipse fill="#000" fill-opacity=".501961" cx="0" cy="0" rx="1" ry="1" /></g><g transform="translate(199.993906 112.849759) rotate(112.913869) scale(46.565783 81.297079)"><ellipse fill="#e6e6e6" fill-opacity=".501961" cx="0" cy="0" rx="1" ry="1" /></g><g transform="translate(200 9) rotate(270) scale(18 25)"><path d="M0 0h4912v2760H0z" fill="#000" /></g><g transform="translate(254.413510 73.680813) rotate(24.735890) scale(62.446231 11.809277)"><ellipse fill="#272727" fill-opacity=".501961" cx="0" cy="0" rx="1" ry="1" /></g></g></svg>