<svg xmlns="http://www.w3.org/2000/svg" viewBox="0 0 1920 1080"><filter id="b"><feGaussianBlur stdDeviation="12" /></filter><path d="M0 0h1920v1080H0z" fill="#525252" /><g filter="url(#b)" transform="scale(7.500000) translate(0.5 0.5)"><g transform="translate(180.080970 70.058304) rotate(378.387838) scale(56.957102 43.299803)"><ellipse fill="#cdcdcd" fill-opacity=".501961" cx="0" cy="0" rx="1" ry="1" /></g><g transform="translate(22.986715 24.602384) rotate(475.738896) scale(253.774526 39.909475)"><ellipse fill="#000" fill-opacity=".501961" cx="0" cy="0" rx="1" ry="1" /></g><ellipse fill="#000" fill-opacity=".501961" cx="135" cy="0" rx="255" ry="18" /><g transform="translate(72.554628 66.188905) rotate(108.990456) scale(34.697692 25.118067)"><ellipse fill="#acacac" fill-opacity=".501961" cx="0" cy="0" rx="1" ry="1" /></g><g transform="translate(17.079209 32.283471) rotate(277.343735) scale(255.000000 22.453218)"><ellipse fill="#000" fill-opacity=".501961" cx="0" cy="0" rx="1" ry="1" /></g><path fill="silver" fill-opacity=".501961" d="M169 1e2 271 17 172 33z" /><path fill="#ababab" fill-opacity=".501961" d="M153.823294 82.086401 117.79863 99.573632 100.359108 143.132988 157.674245 117.939827z" /><path fill="#000" fill-opacity=".501961" d="M162 46 148 1l61-17z" /></g></svg>