<svg xmlns="http://www.w3.org/2000/svg" viewBox="0 0 1920 1080"><filter id="b"><feGaussianBlur stdDeviation="12" /></filter><path d="M0 0h1920v1080H0z" fill="#939393" /><g filter="url(#b)" transform="scale(7.500000) translate(0.5 0.5)"><g transform="translate(53.628608 57.014809) rotate(282.688192) scale(101.354075 45.148542)"><ellipse fill="#fff" fill-opacity=".501961" cx="0" cy="0" rx="1" ry="1" /></g><g transform="translate(228.878210 21.285969) rotate(75.255963) scale(190.047200 31.794188)"><ellipse fill="#000" fill-opacity=".501961" cx="0" cy="0" rx="1" ry="1" /></g><g transform="translate(206.868617 134.261086) rotate(89.068379) scale(21.621032 158.486602)"><ellipse fill="#1c1c1c" fill-opacity=".501961" cx="0" cy="0" rx="1" ry="1" /></g><g transform="translate(58.227430 68.662221) rotate(138.009240) scale(56.579996 44.488103)"><ellipse fill="#fff" fill-opacity=".501961" cx="0" cy="0" rx="1" ry="1" /></g><ellipse fill="#000" fill-opacity=".501961" cx="0" cy="67" rx="6" ry="143" /><g transform="translate(245.429239 32.062757) rotate(84.485651) scale(251.588731 15.031677)"><ellipse fill="#000" fill-opacity=".501961" cx="0" cy="0" rx="1" ry="1" /></g><ellipse fill="#fff" fill-opacity=".501961" cx="39" cy="58" rx="31" ry="86" /><g transform="translate(218.729520 98.152846) rotate(41.470251) scale(9.630597 26.252031)"><ellipse fill="#cbcbcb" fill-opacity=".501961" cx="0" cy="0" rx="1" ry="1" /></g></g></svg>