<svg xmlns="http://www.w3.org/2000/svg" viewBox="0 0 1920 1080"><filter id="b"><feGaussianBlur stdDeviation="12" /></filter><path d="M0 0h1920v1080H0z" fill="#818181" /><g filter="url(#b)" transform="scale(7.500000) translate(0.5 0.5)"><g transform="translate(3.324624 22.957537) rotate(54.819034) scale(49.884631 58.076520)"><ellipse fill="#fff" fill-opacity=".501961" cx="0" cy="0" rx="1" ry="1" /></g><g transform="translate(223.519476 105.241049) rotate(175.497325) scale(108.656408 53.386792)"><ellipse fill="#363636" fill-opacity=".501961" cx="0" cy="0" rx="1" ry="1" /></g><g transform="translate(63.417659 143.000000) rotate(102.568244) scale(70.968975 40.554417)"><ellipse fill="#ededed" fill-opacity=".501961" cx="0" cy="0" rx="1" ry="1" /></g><path d="M0 0h1920v1080H0z" fill="#060606" /><g transform="translate(92.314324 9.924749) rotate(341.330650) scale(47.913118 8.370395)"><ellipse fill="#fff" fill-opacity=".501961" cx="0" cy="0" rx="1" ry="1" /></g><g transform="translate(217.859548 37.487899) rotate(73.639301) scale(144.537114 16.601545)"><ellipse fill="#3c3c3c" fill-opacity=".501961" cx="0" cy="0" rx="1" ry="1" /></g><g transform="translate(50.582734 83.986708) rotate(92.539932) scale(27.638259 6.229826)"><ellipse fill="#232323" fill-opacity=".501961" cx="0" cy="0" rx="1" ry="1" /></g><path fill="#cbcbcb" fill-opacity=".501961" d="M-4 132 43 53l-4 62z" /></g></svg>