<svg xmlns="http://www.w3.org/2000/svg" viewBox="0 0 3456 4608"><filter id="b"><feGaussianBlur stdDeviation="12" /></filter><path d="M0 0h3456v4608H0z" fill="#575757" /><g filter="url(#b)" transform="scale(18.000000) translate(0.5 0.5)"><g transform="translate(138.379826 24.403488) rotate(292.562768) scale(105.970536 54.496677)"><ellipse fill="#fff" fill-opacity=".501961" cx="0" cy="0" rx="1" ry="1" /></g><g transform="translate(33.341114 136.600818) rotate(359.325842) scale(52.068458 155.895641)"><ellipse fill="#000" fill-opacity=".501961" cx="0" cy="0" rx="1" ry="1" /></g><g transform="translate(131 20) rotate(331) scale(112 119)"><path d="M0 0h3456v4608H0z" fill="#fff" /></g><ellipse fill="#000" fill-opacity=".501961" cx="171" cy="188" rx="48" ry="121" /><g transform="translate(111.713036 137.664151) rotate(282.777211) scale(101.189496 16.297250)"><ellipse fill="#fff" fill-opacity=".501961" cx="0" cy="0" rx="1" ry="1" /></g><g transform="translate(139.053260 3.104308) rotate(109.103231) scale(95.382040 56.358850)"><ellipse fill="#fff" fill-opacity=".501961" cx="0" cy="0" rx="1" ry="1" /></g><path fill="#010101" fill-opacity=".501961" d="M184 271l-78-79L207 13z" /><g transform="translate(17.650030 140.615832) rotate(354.784888) scale(54.356672 146.463306)"><ellipse fill="#010101" fill-opacity=".501961" cx="0" cy="0" rx="1" ry="1" /></g></g></svg>