<svg xmlns="http://www.w3.org/2000/svg" viewBox="0 0 4515 2439"><filter id="b"><feGaussianBlur stdDeviation="12" /></filter><path d="M0 0h4515v2439H0z" fill="#989898" /><g filter="url(#b)" transform="scale(17.636719) translate(0.5 0.5)"><g transform="translate(113.387399 9.515056) rotate(357.513909) scale(160.616176 25.407293)"><ellipse fill="#fff" fill-opacity=".501961" cx="0" cy="0" rx="1" ry="1" /></g><g transform="translate(107.168705 96.651678) rotate(345.344362) scale(30.140053 18.262735)"><ellipse fill="#000" fill-opacity=".501961" cx="0" cy="0" rx="1" ry="1" /></g><path fill="#0d0d0d" fill-opacity=".501961" d="M232.039633 61.385689 160.510835 59.737149 136.630357 40.792305 136.517682 25.505487z" /><g transform="translate(241.173657 48.371673) rotate(87.856658) scale(13.850408 80.640996)"><ellipse fill="#444" fill-opacity=".501961" cx="0" cy="0" rx="1" ry="1" /></g><ellipse fill="#3c3c3c" fill-opacity=".501961" cx="19" cy="47" rx="89" ry="9" /><path fill="#fff" fill-opacity=".501961" d="M94.752904 50.506888 130.337194 50.203651 144.032303 66.761773 118.208209 74.33131z" /><ellipse fill="#f3f3f3" fill-opacity=".501961" cx="175" cy="9" rx="42" ry="28" /><ellipse fill="#5a5a5a" fill-opacity=".501961" cx="237" cy="104" rx="20" ry="20" /></g></svg>