<svg xmlns="http://www.w3.org/2000/svg" viewBox="0 0 4608 2240"><filter id="b"><feGaussianBlur stdDeviation="12" /></filter><path d="M0 0h4608v2240H0z" fill="#939393" /><g filter="url(#b)" transform="scale(18.000000) translate(0.5 0.5)"><g transform="translate(149.963656 9.210329) rotate(264.626670) scale(47.433902 117.676818)"><ellipse fill="#fff" fill-opacity=".501961" cx="0" cy="0" rx="1" ry="1" /></g><g transform="translate(212.204433 91.224076) rotate(200.731231) scale(77.129419 21.793740)"><ellipse fill="#000" fill-opacity=".501961" cx="0" cy="0" rx="1" ry="1" /></g><g transform="translate(43.214136 94.984519) rotate(80.575879) scale(39.303127 75.005695)"><ellipse fill="#1e1e1e" fill-opacity=".501961" cx="0" cy="0" rx="1" ry="1" /></g><ellipse fill="#fff" fill-opacity=".501961" cx="62" cy="12" rx="255" ry="21" /><g transform="translate(255.000000 117.414751) rotate(293.874636) scale(17.688108 86.972198)"><ellipse fill="#000" fill-opacity=".501961" cx="0" cy="0" rx="1" ry="1" /></g><g transform="translate(179.100976 19.622156) rotate(61.568985) scale(31.074144 60.658480)"><ellipse fill="#fff" fill-opacity=".501961" cx="0" cy="0" rx="1" ry="1" /></g><path fill="#282828" fill-opacity=".501961" d="M164.18167 66.360905 262.660658 51.355324 199.794914 44.683822 184.14614 53.026431z" /><g transform="translate(53.413594 36.726542) rotate(2.212314) scale(50.781580 20.645636)"><ellipse fill="#aeaeae" fill-opacity=".501961" cx="0" cy="0" rx="1" ry="1" /></g></g></svg>