<svg xmlns="http://www.w3.org/2000/svg" viewBox="0 0 1456 2592"><filter id="b"><feGaussianBlur stdDeviation="12" /></filter><path d="M0 0h1456v2592H0z" fill="#2a2a2a" /><g filter="url(#b)" transform="scale(10.125000) translate(0.5 0.5)"><g transform="translate(77.550785 115.710658) rotate(338.527755) scale(17.278877 42.153079)"><ellipse fill="#fdfdfd" fill-opacity=".501961" cx="0" cy="0" rx="1" ry="1" /></g><path fill="#e5e5e5" fill-opacity=".501961" d="M47 152-6 170 88 64z" /><g transform="translate(38.862522 40.270087) rotate(334.704939) scale(143.000000 49.135738)"><ellipse fill="#000" fill-opacity=".501961" cx="0" cy="0" rx="1" ry="1" /></g><path fill="#fff" fill-opacity=".501961" d="M78 53l8 68-26-20z" /><ellipse fill="#000" fill-opacity=".501961" cx="130" cy="96" rx="48" ry="48" /><g transform="translate(121.453469 166.742593) rotate(120.225165) scale(23.576623 90.697428)"><ellipse fill="#6a6a6a" fill-opacity=".501961" cx="0" cy="0" rx="1" ry="1" /></g><ellipse fill="#ababab" fill-opacity=".501961" cx="56" cy="205" rx="55" ry="5" /><path fill="#fff" fill-opacity=".501961" d="M92 125l21 27-31-4z" /></g></svg>