<svg xmlns="http://www.w3.org/2000/svg" viewBox="0 0 5171 1739"><filter id="b"><feGaussianBlur stdDeviation="12" /></filter><path d="M0 0h5171v1739H0z" fill="#888" /><g filter="url(#b)" transform="scale(20.199219) translate(0.5 0.5)"><g transform="translate(151.986408 34.737391) rotate(89.126591) scale(10.577525 181.153228)"><ellipse fill="#fff" fill-opacity=".501961" cx="0" cy="0" rx="1" ry="1" /></g><g transform="translate(93.783184 1.315580) rotate(267.529851) scale(18.256998 145.062650)"><ellipse fill="#010101" fill-opacity=".501961" cx="0" cy="0" rx="1" ry="1" /></g><ellipse fill="#272727" fill-opacity=".501961" cx="228" cy="72" rx="97" ry="21" /><ellipse fill="#bfbfbf" fill-opacity=".501961" cx="80" cy="85" rx="54" ry="48" /><g transform="translate(234.386309 31.682514) rotate(258.878051) scale(11.010264 65.488309)"><ellipse fill="#fff" fill-opacity=".501961" cx="0" cy="0" rx="1" ry="1" /></g><path d="M0 0h5171v1739H0z" fill="#212121" /><g transform="translate(97.778631 36.549168) rotate(269.716619) scale(5.145803 134.508531)"><ellipse fill="#fff" fill-opacity=".501961" cx="0" cy="0" rx="1" ry="1" /></g><path d="M0 0h5171v1739H0z" fill="#656565" /></g></svg>