<svg xmlns="http://www.w3.org/2000/svg" viewBox="0 0 2760 4912"><filter id="b"><feGaussianBlur stdDeviation="12" /></filter><path d="M0 0h2760v4912H0z" fill="#969696" /><g filter="url(#b)" transform="scale(19.187500) translate(0.5 0.5)"><g transform="translate(108.141492 238.539158) rotate(261.540527) scale(21.962315 143.000000)"><ellipse fill="#000" fill-opacity=".501961" cx="0" cy="0" rx="1" ry="1" /></g><g transform="translate(59.494510 114.242846) rotate(258.954540) scale(67.471855 127.416184)"><ellipse fill="#dedede" fill-opacity=".501961" cx="0" cy="0" rx="1" ry="1" /></g><path fill="#000" fill-opacity=".501961" d="M136.574701 260.289644 92.18073 271 89.547043 148.957967 102.909443 150.980637z" /><g transform="translate(80.050372 10.549629) rotate(2.532119) scale(143.000000 18.126250)"><ellipse fill="#444" fill-opacity=".501961" cx="0" cy="0" rx="1" ry="1" /></g><ellipse fill="#000" fill-opacity=".501961" cx="143" cy="246" rx="67" ry="30" /><path fill="#b8b8b8" fill-opacity=".501961" d="M-16 197l88 50 27-84z" /><path d="M0 0h2760v4912H0z" fill="#c8c8c8" /><path fill="#000" fill-opacity=".501961" d="M90.852368 154.677922 102.094816 188.087383 116.903703 238.562834 105.068419 158.343176z" /></g></svg>