<svg xmlns="http://www.w3.org/2000/svg" viewBox="0 0 1920 1080"><filter id="b"><feGaussianBlur stdDeviation="12" /></filter><path d="M0 0h1920v1080H0z" fill="#797979" /><g filter="url(#b)" transform="scale(7.500000) translate(0.5 0.5)"><g transform="translate(196.290319 33.418094) rotate(235.108966) scale(41.675151 51.952340)"><ellipse fill="#fff" fill-opacity=".501961" cx="0" cy="0" rx="1" ry="1" /></g><ellipse fill="#000" fill-opacity=".501961" cx="186" cy="143" rx="71" ry="71" /><g transform="translate(18.965875 105.497654) rotate(215.554243) scale(94.139916 42.608929)"><ellipse fill="#fff" fill-opacity=".501961" cx="0" cy="0" rx="1" ry="1" /></g><g transform="translate(109.852849 45.643556) rotate(98.524228) scale(59.270345 32.234658)"><ellipse fill="#040404" fill-opacity=".501961" cx="0" cy="0" rx="1" ry="1" /></g><ellipse fill="#000" fill-opacity=".501961" cx="205" cy="143" rx="59" ry="59" /><ellipse fill="#fff" fill-opacity=".501961" cx="16" cy="109" rx="37" ry="37" /><g transform="translate(186 34) rotate(181) scale(63 96)"><path d="M0 0h1920v1080H0z" fill="#f2f2f2" /></g><g transform="translate(71.573441 11.238111) rotate(240.525735) scale(25.042737 21.557372)"><ellipse fill="#dedede" fill-opacity=".501961" cx="0" cy="0" rx="1" ry="1" /></g></g></svg>