<svg xmlns="http://www.w3.org/2000/svg" viewBox="0 0 4912 2760"><filter id="b"><feGaussianBlur stdDeviation="12" /></filter><path d="M0 0h4912v2760H0z" fill="#313131" /><g filter="url(#b)" transform="scale(19.187500) translate(0.5 0.5)"><ellipse fill="#fafaf9" fill-opacity=".501961" cx="134" cy="73" rx="70" ry="17" /><g transform="translate(168.216921 64.255381) rotate(403.378350) scale(36.366588 12.868325)"><ellipse fill="#fff" fill-opacity=".501961" cx="0" cy="0" rx="1" ry="1" /></g><g transform="translate(124 65) rotate(42) scale(166 23)"><path d="M0 0h4912v2760H0z" fill="#0e0e0e" /></g><g transform="translate(21.957068 64.300460) rotate(197.000877) scale(45.404220 97.819412)"><ellipse fill="#010201" fill-opacity=".501961" cx="0" cy="0" rx="1" ry="1" /></g><g transform="translate(190.122500 11.849840) rotate(365.628835) scale(117.293185 18.778263)"><ellipse fill="#000" fill-opacity=".501961" cx="0" cy="0" rx="1" ry="1" /></g><path fill="#fff" fill-opacity=".501961" d="M117 88 101 60 69 68z" /><path fill="#e2e2e3" fill-opacity=".501961" d="M139.31155 79.222521 147.510584 87.118434 164.16644 35.705225 139.750648 53.067579z" /><g transform="translate(245.352937 96.378686) rotate(94.984350) scale(146.383798 17.920754)"><ellipse fill="#020202" fill-opacity=".501961" cx="0" cy="0" rx="1" ry="1" /></g></g></svg>