<svg xmlns="http://www.w3.org/2000/svg" viewBox="0 0 4878 2731"><filter id="b"><feGaussianBlur stdDeviation="12" /></filter><path d="M0 0h4878v2731H0z" fill="#9f9f9f" /><g filter="url(#b)" transform="scale(19.054688) translate(0.5 0.5)"><g transform="translate(151.174421 125.795630) rotate(91.258274) scale(37.100161 248.194632)"><ellipse fill="#000" fill-opacity=".501961" cx="0" cy="0" rx="1" ry="1" /></g><ellipse fill="#fff" fill-opacity=".501961" cx="135" cy="28" rx="255" ry="48" /><ellipse fill="#fff" fill-opacity=".501961" cx="165" cy="35" rx="201" ry="37" /><g transform="translate(118.618920 142.000000) rotate(0.324707) scale(255.000000 28.775110)"><ellipse fill="#121212" fill-opacity=".501961" cx="0" cy="0" rx="1" ry="1" /></g><g transform="translate(16.918941 111.610311) rotate(277.984436) scale(29.894233 42.541276)"><ellipse fill="#232323" fill-opacity=".501961" cx="0" cy="0" rx="1" ry="1" /></g><ellipse fill="#7c7c7c" fill-opacity=".501961" cx="56" cy="89" rx="249" ry="5" /><g transform="translate(149.756895 40.282455) rotate(92.531654) scale(30.739482 93.633810)"><ellipse fill="#f6f6f6" fill-opacity=".501961" cx="0" cy="0" rx="1" ry="1" /></g><path fill="#6b6b6b" fill-opacity=".501961" d="M223.677254 108.249473 151.332845 104.266806 129.096689 117.039043 179.258779 119.848507z" /></g></svg>