<svg xmlns="http://www.w3.org/2000/svg" viewBox="0 0 4128 2322"><filter id="b"><feGaussianBlur stdDeviation="12" /></filter><path d="M0 0h4128v2322H0z" fill="#767676" /><g filter="url(#b)" transform="scale(16.125000) translate(0.5 0.5)"><g transform="translate(103.008304 15.562636) rotate(82.296874) scale(37.886026 168.813913)"><ellipse fill="#000" fill-opacity=".501961" cx="0" cy="0" rx="1" ry="1" /></g><g transform="translate(225.987747 64.678073) rotate(346.278122) scale(99.816837 39.555790)"><ellipse fill="#fff" fill-opacity=".501961" cx="0" cy="0" rx="1" ry="1" /></g><g transform="translate(42.615619 92.439364) rotate(81.581535) scale(21.135210 128.525299)"><ellipse fill="#f9f9f9" fill-opacity=".501961" cx="0" cy="0" rx="1" ry="1" /></g><ellipse fill="#000" fill-opacity=".501961" cx="106" cy="17" rx="108" ry="31" /><g transform="translate(180.308198 133.745581) rotate(94.515377) scale(8.205006 142.937667)"><ellipse fill="#ededed" fill-opacity=".501961" cx="0" cy="0" rx="1" ry="1" /></g><path fill="#000" fill-opacity=".501961" d="M19 159l115-16L14 126z" /><g transform="translate(243.852287 89.564767) rotate(410.359892) scale(32.969702 19.719933)"><ellipse fill="#fff" fill-opacity=".501961" cx="0" cy="0" rx="1" ry="1" /></g><ellipse fill="#000" fill-opacity=".501961" cx="193" cy="8" rx="255" ry="16" /></g></svg>