<svg xmlns="http://www.w3.org/2000/svg" viewBox="0 0 3920 2204"><filter id="b"><feGaussianBlur stdDeviation="12" /></filter><path d="M0 0h3920v2204H0z" fill="#9d9d9d" /><g filter="url(#b)" transform="scale(15.312500) translate(0.5 0.5)"><g transform="translate(127.008620 142.000000) rotate(2.565826) scale(188.857004 28.543849)"><ellipse fill="#000" fill-opacity=".501961" cx="0" cy="0" rx="1" ry="1" /></g><ellipse fill="#fff" fill-opacity=".501961" cx="135" cy="0" rx="225" ry="52" /><path fill="#000" fill-opacity=".501961" d="M173 142 28 158 21 79z" /><path fill="#151515" fill-opacity=".501961" d="M218 77 59 43l51 43z" /><ellipse fill="#fff" fill-opacity=".501961" cx="119" cy="18" rx="252" ry="31" /><ellipse fill="#000" fill-opacity=".501961" cx="205" cy="138" rx="255" ry="17" /><g transform="translate(182.144384 103.109014) rotate(93.374498) scale(15.333719 90.513000)"><ellipse fill="#fdfdfd" fill-opacity=".501961" cx="0" cy="0" rx="1" ry="1" /></g><g transform="translate(0 68) rotate(264) scale(40 35)"><path d="M0 0h3920v2204H0z" fill="#030303" /></g></g></svg>