<svg xmlns="http://www.w3.org/2000/svg" viewBox="0 0 4912 2760"><filter id="b"><feGaussianBlur stdDeviation="12" /></filter><path d="M0 0h4912v2760H0z" fill="#949494" /><g filter="url(#b)" transform="scale(19.187500) translate(0.5 0.5)"><g transform="translate(213.049789 26.242709) rotate(300.569690) scale(43.915877 116.985540)"><ellipse fill="#000" fill-opacity=".501961" cx="0" cy="0" rx="1" ry="1" /></g><g transform="translate(132.299984 111.711805) rotate(300.415664) scale(74.726893 156.581770)"><ellipse fill="#d1d1d1" fill-opacity=".501961" cx="0" cy="0" rx="1" ry="1" /></g><path fill="#121212" fill-opacity=".501961" d="M-16 128 76 60 56 119z" /><g transform="translate(148 73) rotate(117) scale(17 45)"><path d="M0 0h4912v2760H0z" fill="#000" /></g><g transform="translate(16.025053 8.444527) rotate(243.378579) scale(29.816040 9.123032)"><ellipse fill="#000" fill-opacity=".501961" cx="0" cy="0" rx="1" ry="1" /></g><g transform="translate(82.243049 10.144218) rotate(-4.172712) scale(38.281879 16.684487)"><ellipse fill="#fdfdfd" fill-opacity=".501961" cx="0" cy="0" rx="1" ry="1" /></g><ellipse fill="#f0f0f0" fill-opacity=".501961" cx="104" cy="96" rx="30" ry="30" /><path fill="#1f1f1f" fill-opacity=".501961" d="M270.677192-5.117675 259.003393 117.266108 250.666338 115.431747 155.279382-16z" /></g></svg>