<svg xmlns="http://www.w3.org/2000/svg" viewBox="0 0 1920 1080"><filter id="b"><feGaussianBlur stdDeviation="12" /></filter><path d="M0 0h1920v1080H0z" fill="#818181" /><g filter="url(#b)" transform="scale(7.500000) translate(0.5 0.5)"><g transform="translate(19.323311 30.669705) rotate(43.547339) scale(32.049403 54.454479)"><ellipse fill="#fff" fill-opacity=".501961" cx="0" cy="0" rx="1" ry="1" /></g><g transform="translate(202.908360 109.248217) rotate(168.445824) scale(87.107304 60.514456)"><ellipse fill="#383838" fill-opacity=".501961" cx="0" cy="0" rx="1" ry="1" /></g><g transform="translate(64.578186 143.000000) rotate(100.815177) scale(71.950851 40.931794)"><ellipse fill="#ebebeb" fill-opacity=".501961" cx="0" cy="0" rx="1" ry="1" /></g><g transform="translate(75.179412 55.635726) rotate(343.279257) scale(28.315595 16.447902)"><ellipse fill="#0c0c0c" fill-opacity=".501961" cx="0" cy="0" rx="1" ry="1" /></g><path fill="#fff" fill-opacity=".501961" d="M46 17l98-28L91 28z" /><g transform="translate(200.914976 14.633113) rotate(245.513001) scale(157.321808 25.473483)"><ellipse fill="#4b4b4b" fill-opacity=".501961" cx="0" cy="0" rx="1" ry="1" /></g><path fill="#181818" fill-opacity=".501961" d="M49 112 60 70 40 73z" /><g transform="translate(18.345030 115.693213) rotate(321.339627) scale(36.482558 4.959905)"><ellipse fill="#ececec" fill-opacity=".501961" cx="0" cy="0" rx="1" ry="1" /></g></g></svg>