<svg xmlns="http://www.w3.org/2000/svg" viewBox="0 0 1920 1080"><filter id="b"><feGaussianBlur stdDeviation="12" /></filter><path d="M0 0h1920v1080H0z" fill="#797979" /><g filter="url(#b)" transform="scale(7.500000) translate(0.5 0.5)"><g transform="translate(195.566369 28.454883) rotate(313.144837) scale(56.345400 42.024060)"><ellipse fill="#fff" fill-opacity=".501961" cx="0" cy="0" rx="1" ry="1" /></g><ellipse fill="#000" fill-opacity=".501961" cx="189" cy="130" rx="85" ry="48" /><g transform="translate(19.750743 104.877155) rotate(126.657451) scale(41.381337 85.926207)"><ellipse fill="#fff" fill-opacity=".501961" cx="0" cy="0" rx="1" ry="1" /></g><g transform="translate(110.573070 45.833451) rotate(187.186975) scale(29.940259 58.210895)"><ellipse fill="#000" fill-opacity=".501961" cx="0" cy="0" rx="1" ry="1" /></g><g transform="translate(189.974171 130.247887) rotate(266.218046) scale(38.415619 74.874274)"><ellipse fill="#000" fill-opacity=".501961" cx="0" cy="0" rx="1" ry="1" /></g><ellipse fill="#fff" fill-opacity=".501961" cx="14" cy="111" rx="38" ry="38" /><g transform="translate(16.988402 24.404377) rotate(71.739994) scale(40.334099 9.507276)"><ellipse fill="#000" fill-opacity=".501961" cx="0" cy="0" rx="1" ry="1" /></g><g transform="translate(187.909688 24.965071) rotate(392.341626) scale(28.460104 46.279063)"><ellipse fill="#fff" fill-opacity=".501961" cx="0" cy="0" rx="1" ry="1" /></g></g></svg>