<svg xmlns="http://www.w3.org/2000/svg" viewBox="0 0 1920 1080"><filter id="b"><feGaussianBlur stdDeviation="12" /></filter><path d="M0 0h1920v1080H0z" fill="#525252" /><g filter="url(#b)" transform="scale(7.500000) translate(0.5 0.5)"><g transform="translate(183.343721 69.777055) rotate(276.176177) scale(42.539889 53.253825)"><ellipse fill="#d3d3d3" fill-opacity=".501961" cx="0" cy="0" rx="1" ry="1" /></g><g transform="translate(6.956431 64.876008) rotate(206.959675) scale(36.503313 255.000000)"><ellipse fill="#000" fill-opacity=".501961" cx="0" cy="0" rx="1" ry="1" /></g><ellipse fill="#000" fill-opacity=".501961" cx="131" cy="1" rx="255" ry="17" /><g transform="translate(94.728351 52.331651) rotate(237.770731) scale(28.188379 68.440549)"><ellipse fill="#8e8e8e" fill-opacity=".501961" cx="0" cy="0" rx="1" ry="1" /></g><g transform="translate(11.133095 68.561817) rotate(368.385829) scale(24.792476 169.170233)"><ellipse fill="#000" fill-opacity=".501961" cx="0" cy="0" rx="1" ry="1" /></g><path fill="#ababab" fill-opacity=".501961" d="M127 87l36 21-74 51z" /><g transform="translate(165 26) rotate(261) scale(26 18)"><path d="M0 0h1920v1080H0z" fill="#000" /></g><g transform="translate(109 36) rotate(51) scale(16 31)"><path d="M0 0h1920v1080H0z" fill="#000" /></g></g></svg>