<svg xmlns="http://www.w3.org/2000/svg" viewBox="0 0 4912 2760"><filter id="b"><feGaussianBlur stdDeviation="12" /></filter><path d="M0 0h4912v2760H0z" fill="#848484" /><g filter="url(#b)" transform="scale(19.187500) translate(0.5 0.5)"><g transform="translate(86.953013 28.417249) rotate(81.464155) scale(53.177926 163.090429)"><ellipse fill="#fff" fill-opacity=".501961" cx="0" cy="0" rx="1" ry="1" /></g><g transform="translate(148.503965 119.759784) rotate(83.069856) scale(45.047930 253.419976)"><ellipse fill="#000" fill-opacity=".501961" cx="0" cy="0" rx="1" ry="1" /></g><g transform="translate(247.605216 51.054404) rotate(68.976735) scale(22.205592 74.727339)"><ellipse fill="#000" fill-opacity=".501961" cx="0" cy="0" rx="1" ry="1" /></g><g transform="translate(78.384925 35.047903) rotate(180.379686) scale(123.051251 49.174665)"><ellipse fill="#fff" fill-opacity=".501961" cx="0" cy="0" rx="1" ry="1" /></g><ellipse fill="#000" fill-opacity=".501961" cx="71" cy="135" rx="255" ry="50" /><path fill="#fff" fill-opacity=".501961" d="M271 7 152 77-16-16z" /><g transform="translate(242 43) rotate(149) scale(136 27)"><path d="M0 0h4912v2760H0z" fill="#000" /></g><ellipse fill="#fff" fill-opacity=".501961" cx="32" cy="38" rx="170" ry="48" /></g></svg>