<svg xmlns="http://www.w3.org/2000/svg" viewBox="0 0 2760 4912"><filter id="b"><feGaussianBlur stdDeviation="12" /></filter><path d="M0 0h2760v4912H0z" fill="#757575" /><g filter="url(#b)" transform="scale(19.187500) translate(0.5 0.5)"><g transform="translate(95.933845 160.462259) rotate(357.143794) scale(27.486326 68.495240)"><ellipse fill="#000" fill-opacity=".501961" cx="0" cy="0" rx="1" ry="1" /></g><g transform="translate(87.655315 251.040481) rotate(263.712952) scale(30.238309 117.725455)"><ellipse fill="#fbfbfb" fill-opacity=".501961" cx="0" cy="0" rx="1" ry="1" /></g><g transform="translate(5.158087 122.636983) rotate(135.914592) scale(39.612337 38.696365)"><ellipse fill="#fff" fill-opacity=".501961" cx="0" cy="0" rx="1" ry="1" /></g><g transform="translate(143.000000 125.004325) rotate(18.372546) scale(16.326811 46.080467)"><ellipse fill="#fff" fill-opacity=".501961" cx="0" cy="0" rx="1" ry="1" /></g><ellipse fill="#000" fill-opacity=".501961" cx="105" cy="201" rx="45" ry="18" /><g transform="translate(73.772480 13.833813) rotate(270.852959) scale(28.748411 131.243199)"><ellipse fill="#2f2f2f" fill-opacity=".501961" cx="0" cy="0" rx="1" ry="1" /></g><g transform="translate(49.917895 98.542270) rotate(206.620924) scale(18.628488 59.291427)"><ellipse fill="#a6a6a6" fill-opacity=".501961" cx="0" cy="0" rx="1" ry="1" /></g><g transform="translate(92.885142 150.331119) rotate(258.040136) scale(66.792942 16.214147)"><ellipse fill="#000" fill-opacity=".501961" cx="0" cy="0" rx="1" ry="1" /></g></g></svg>