<svg xmlns="http://www.w3.org/2000/svg" viewBox="0 0 4912 2760"><filter id="b"><feGaussianBlur stdDeviation="12" /></filter><path d="M0 0h4912v2760H0z" fill="#959595" /><g filter="url(#b)" transform="scale(19.187500) translate(0.5 0.5)"><g transform="translate(28.766303 72.391603) rotate(102.300155) scale(244.453550 49.164069)"><ellipse fill="#fff" fill-opacity=".501961" cx="0" cy="0" rx="1" ry="1" /></g><g transform="translate(222.170247 73.839534) rotate(224.651112) scale(101.959453 128.948551)"><ellipse fill="#4e4e4e" fill-opacity=".501961" cx="0" cy="0" rx="1" ry="1" /></g><g transform="translate(149 94) rotate(262) scale(29 24)"><path d="M0 0h4912v2760H0z" fill="#000" /></g><ellipse fill="#a3a3a3" fill-opacity=".501961" cx="202" cy="41" rx="38" ry="33" /><g transform="translate(247.488017 100.665415) rotate(328.820185) scale(22.274291 37.668111)"><ellipse fill="#2d2d2d" fill-opacity=".501961" cx="0" cy="0" rx="1" ry="1" /></g><g transform="translate(99.726421 19.206600) rotate(281.117686) scale(45.437324 16.887936)"><ellipse fill="#d8d8d8" fill-opacity=".501961" cx="0" cy="0" rx="1" ry="1" /></g><path fill="#e7e7e7" fill-opacity=".501961" d="M110.123247 141.65383 7.493354 92.491546-.374858-16 100.781815 120.269376z" /><path fill="#323232" fill-opacity=".501961" d="M110.609774 105.071304 86.276865 107.127878 78.918138 88.721697 68.286874 54.93566z" /></g></svg>