<svg xmlns="http://www.w3.org/2000/svg" viewBox="0 0 4128 2322"><filter id="b"><feGaussianBlur stdDeviation="12" /></filter><path d="M0 0h4128v2322H0z" fill="#878787" /><g filter="url(#b)" transform="scale(16.125000) translate(0.5 0.5)"><ellipse fill="#fff" fill-opacity=".501961" cx="90" cy="143" rx="96" ry="79" /><g transform="translate(212.430728 27.542351) rotate(360.304903) scale(46.450859 125.052436)"><ellipse fill="#222" fill-opacity=".501961" cx="0" cy="0" rx="1" ry="1" /></g><g transform="translate(129.933957 18.153600) rotate(1.791859) scale(241.060120 26.983936)"><ellipse fill="#434343" fill-opacity=".501961" cx="0" cy="0" rx="1" ry="1" /></g><g transform="translate(235.890734 111.215623) rotate(159.026282) scale(30.961817 63.947727)"><ellipse fill="#8d8d8d" fill-opacity=".501961" cx="0" cy="0" rx="1" ry="1" /></g><ellipse fill="#f9f9f9" fill-opacity=".501961" cx="82" cy="143" rx="65" ry="48" /><path fill="#000" fill-opacity=".501961" d="M184.37408 102.512045 164.938311-16 212.988233 136.327123 186.708766 159z" /><g transform="translate(169 101) rotate(173) scale(27 74)"><path d="M0 0h4128v2322H0z" fill="#b3b3b3" /></g><ellipse fill="#000" fill-opacity=".501961" cx="181" cy="46" rx="16" ry="15" /></g></svg>