<svg xmlns="http://www.w3.org/2000/svg" viewBox="0 0 2048 1151"><filter id="b"><feGaussianBlur stdDeviation="12" /></filter><path d="M0 0h2048v1151H0z" fill="#8e8e8e" /><g filter="url(#b)" transform="scale(8.000000) translate(0.5 0.5)"><g transform="translate(99.640625 26.815750) rotate(236.928579) scale(58.251854 65.645970)"><ellipse fill="#fff" fill-opacity=".501961" cx="0" cy="0" rx="1" ry="1" /></g><g transform="translate(230.185140 31.128423) rotate(252.827719) scale(47.432365 73.516485)"><ellipse fill="#000" fill-opacity=".501961" cx="0" cy="0" rx="1" ry="1" /></g><g transform="translate(107.459182 107.462493) rotate(161.817990) scale(67.210618 21.275869)"><ellipse fill="#262626" fill-opacity=".501961" cx="0" cy="0" rx="1" ry="1" /></g><ellipse fill="#fff" fill-opacity=".501961" cx="107" cy="16" rx="59" ry="59" /><g transform="translate(231.850712 115.993461) rotate(228.962823) scale(53.445674 12.208882)"><ellipse fill="#f6f6f6" fill-opacity=".501961" cx="0" cy="0" rx="1" ry="1" /></g><g transform="translate(243 86) rotate(119) scale(23 42)"><path d="M0 0h2048v1151H0z" fill="#070707" /></g><path fill="#1c1c1c" fill-opacity=".501961" d="M219.236373-16 157.499023 41.438545 135.304699 105.621399 184.575123 63.18134z" /><ellipse fill="#4c4c4c" fill-opacity=".501961" cx="26" cy="128" rx="31" ry="26" /></g></svg>