<svg xmlns="http://www.w3.org/2000/svg" viewBox="0 0 2760 4912"><filter id="b"><feGaussianBlur stdDeviation="12" /></filter><path d="M0 0h2760v4912H0z" fill="#838383" /><g filter="url(#b)" transform="scale(19.187500) translate(0.5 0.5)"><g transform="translate(93.483572 122.740367) rotate(81.887002) scale(143.000000 25.548373)"><ellipse fill="#fff" fill-opacity=".501961" cx="0" cy="0" rx="1" ry="1" /></g><g transform="translate(17.942565 79.133912) rotate(253.408610) scale(104.402320 28.340753)"><ellipse fill="#000" fill-opacity=".501961" cx="0" cy="0" rx="1" ry="1" /></g><ellipse fill="#000" fill-opacity=".501961" cx="137" cy="69" rx="25" ry="118" /><g transform="translate(84.117031 56.651735) rotate(259.586091) scale(70.642360 30.402684)"><ellipse fill="#fff" fill-opacity=".501961" cx="0" cy="0" rx="1" ry="1" /></g><g transform="translate(99.255546 236.854820) rotate(184.758514) scale(55.177586 13.761152)"><ellipse fill="#fff" fill-opacity=".501961" cx="0" cy="0" rx="1" ry="1" /></g><ellipse fill="#737373" fill-opacity=".501961" cx="49" cy="167" rx="50" ry="50" /><g transform="translate(7.986712 228.972592) rotate(313.901499) scale(22.087622 95.707932)"><ellipse fill="#1e1e1e" fill-opacity=".501961" cx="0" cy="0" rx="1" ry="1" /></g><g transform="translate(14.388604 100.312493) rotate(70.577563) scale(29.120077 43.741079)"><ellipse fill="#000" fill-opacity=".501961" cx="0" cy="0" rx="1" ry="1" /></g></g></svg>