<svg xmlns="http://www.w3.org/2000/svg" viewBox="0 0 3456 4608"><filter id="b"><feGaussianBlur stdDeviation="12" /></filter><path d="M0 0h3456v4608H0z" fill="#575757" /><g filter="url(#b)" transform="scale(18.000000) translate(0.5 0.5)"><g transform="translate(136.531676 21.536223) rotate(288.198028) scale(108.922026 54.642097)"><ellipse fill="#fff" fill-opacity=".501961" cx="0" cy="0" rx="1" ry="1" /></g><ellipse fill="#000" fill-opacity=".501961" cx="0" cy="138" rx="96" ry="96" /><g transform="translate(120.655892 99.605658) rotate(286.833365) scale(116.862058 21.301073)"><ellipse fill="#fff" fill-opacity=".501961" cx="0" cy="0" rx="1" ry="1" /></g><g transform="translate(170.404368 169.524926) rotate(269.264929) scale(100.718837 44.165471)"><ellipse fill="#000" fill-opacity=".501961" cx="0" cy="0" rx="1" ry="1" /></g><ellipse fill="#fff" fill-opacity=".501961" cx="133" cy="0" rx="66" ry="82" /><g transform="translate(30.093022 142.984561) rotate(-4.186077) scale(47.513480 191.000000)"><ellipse fill="#000" fill-opacity=".501961" cx="0" cy="0" rx="1" ry="1" /></g><path fill="#f9f9f9" fill-opacity=".501961" d="M89 228l8-49 34 60z" /><ellipse fill="#000" fill-opacity=".501961" cx="158" cy="193" rx="49" ry="49" /></g></svg>