<svg xmlns="http://www.w3.org/2000/svg" viewBox="0 0 4515 2439"><filter id="b"><feGaussianBlur stdDeviation="12" /></filter><path d="M0 0h4515v2439H0z" fill="#989898" /><g filter="url(#b)" transform="scale(17.636719) translate(0.5 0.5)"><g transform="translate(126.856697 10.615385) rotate(266.973025) scale(23.603859 148.436675)"><ellipse fill="#fff" fill-opacity=".501961" cx="0" cy="0" rx="1" ry="1" /></g><path fill="#000" fill-opacity=".501961" d="M78 71l77 18-74 34z" /><path d="M0 0h4515v2439H0z" fill="#252525" /><g transform="translate(29 47) rotate(182) scale(131 16)"><path d="M0 0h4515v2439H0z" fill="#383838" /></g><g transform="translate(148 37) rotate(272) scale(15 21)"><path d="M0 0h4515v2439H0z" fill="#000" /></g><g transform="translate(182.856856 7.055014) rotate(276.029058) scale(31.963103 69.439356)"><ellipse fill="#e9e9e9" fill-opacity=".501961" cx="0" cy="0" rx="1" ry="1" /></g><g transform="translate(126 62) rotate(284) scale(17 37)"><path d="M0 0h4515v2439H0z" fill="#fff" /></g><g transform="translate(36.123180 118.756766) rotate(198.890307) scale(99.828326 27.186142)"><ellipse fill="#787878" fill-opacity=".501961" cx="0" cy="0" rx="1" ry="1" /></g></g></svg>