<svg xmlns="http://www.w3.org/2000/svg" viewBox="0 0 4608 2240"><filter id="b"><feGaussianBlur stdDeviation="12" /></filter><path d="M0 0h4608v2240H0z" fill="#939393" /><g filter="url(#b)" transform="scale(18.000000) translate(0.5 0.5)"><ellipse fill="#fff" fill-opacity=".501961" cx="130" cy="0" rx="134" ry="57" /><g transform="translate(228.106085 104.775573) rotate(297.292006) scale(23.809871 91.742163)"><ellipse fill="#000" fill-opacity=".501961" cx="0" cy="0" rx="1" ry="1" /></g><g transform="translate(32.890361 96.830326) rotate(-100.594471) scale(40.058743 79.620342)"><ellipse fill="#1a1a1a" fill-opacity=".501961" cx="0" cy="0" rx="1" ry="1" /></g><ellipse fill="#fff" fill-opacity=".501961" cx="165" cy="8" rx="93" ry="41" /><g transform="translate(232.462327 103.094768) rotate(200.329414) scale(66.535428 12.588682)"><ellipse fill="#000" fill-opacity=".501961" cx="0" cy="0" rx="1" ry="1" /></g><path fill="#333" fill-opacity=".501961" d="M181.295415 65.013779 183.502016 51.163386 271 26.525893l-8.628062 26.216804z" /><ellipse fill="#383838" fill-opacity=".501961" cx="51" cy="66" rx="119" ry="10" /><path d="M0 0h4608v2240H0z" fill="#ebebeb" /></g></svg>