<svg xmlns="http://www.w3.org/2000/svg" viewBox="0 0 1456 2592"><filter id="b"><feGaussianBlur stdDeviation="12" /></filter><path d="M0 0h1456v2592H0z" fill="#2a2a2a" /><g filter="url(#b)" transform="scale(10.125000) translate(0.5 0.5)"><path fill="#fff" fill-opacity=".501961" d="M47 120l64 45L76 59z" /><g transform="translate(25 149) rotate(235) scale(13 53)"><path d="M0 0h1456v2592H0z" fill="#fff" /></g><g transform="translate(45.738322 31.603079) rotate(169.811252) scale(143.000000 41.371509)"><ellipse fill="#000" fill-opacity=".501961" cx="0" cy="0" rx="1" ry="1" /></g><g transform="translate(124.168471 84.148563) rotate(188.705756) scale(40.244517 60.977902)"><ellipse fill="#000" fill-opacity=".501961" cx="0" cy="0" rx="1" ry="1" /></g><ellipse fill="#8d8d8d" fill-opacity=".501961" cx="117" cy="155" rx="99" ry="11" /><path fill="#6f6f6f" fill-opacity=".501961" d="M140 216l17-46-173 39z" /><path fill="#fff" fill-opacity=".501961" d="M84 115 79 57 49 118z" /><g transform="translate(34.924822 60.699314) rotate(294.973210) scale(110.739352 29.049999)"><ellipse fill="#000" fill-opacity=".501961" cx="0" cy="0" rx="1" ry="1" /></g></g></svg>