<svg xmlns="http://www.w3.org/2000/svg" viewBox="0 0 5171 1739"><filter id="b"><feGaussianBlur stdDeviation="12" /></filter><path d="M0 0h5171v1739H0z" fill="#888" /><g filter="url(#b)" transform="scale(20.199219) translate(0.5 0.5)"><g transform="translate(141.560758 35.127804) rotate(359.847705) scale(186.749282 9.857329)"><ellipse fill="#fff" fill-opacity=".501961" cx="0" cy="0" rx="1" ry="1" /></g><g transform="translate(57.707624 0.000000) rotate(180.030363) scale(162.129392 19.494184)"><ellipse fill="#000" fill-opacity=".501961" cx="0" cy="0" rx="1" ry="1" /></g><ellipse fill="#262626" fill-opacity=".501961" cx="226" cy="77" rx="90" ry="27" /><g transform="translate(234 31) rotate(174) scale(117 22)"><path d="M0 0h5171v1739H0z" fill="#fff" /></g><path d="M0 0h5171v1739H0z" fill="#c1c1c1" /><path fill="#141414" fill-opacity=".501961" d="M120.082702 40.311547 136.696788 78.761463 149.751698 45.482934 155.957592 61.661827z" /><ellipse fill="#fff" fill-opacity=".501961" cx="68" cy="37" rx="255" ry="4" /><g transform="translate(20.869629 70.025446) rotate(166.530688) scale(41.970454 5.266520)"><ellipse fill="#444" fill-opacity=".501961" cx="0" cy="0" rx="1" ry="1" /></g></g></svg>