<svg xmlns="http://www.w3.org/2000/svg" viewBox="0 0 2760 4912"><filter id="b"><feGaussianBlur stdDeviation="12" /></filter><path d="M0 0h2760v4912H0z" fill="#969696" /><g filter="url(#b)" transform="scale(19.187500) translate(0.5 0.5)"><g transform="translate(86.236994 247.845532) rotate(169.988827) scale(143.000000 27.604125)"><ellipse fill="#000" fill-opacity=".501961" cx="0" cy="0" rx="1" ry="1" /></g><g transform="translate(46.778177 115.600778) rotate(78.902459) scale(67.338947 138.047082)"><ellipse fill="#dedede" fill-opacity=".501961" cx="0" cy="0" rx="1" ry="1" /></g><path fill="#000" fill-opacity=".501961" d="M91 271l2-131 25 47z" /><path fill="#000" fill-opacity=".501961" d="M159 261V194L60 259z" /><g transform="translate(43.941000 4.059905) rotate(6.233012) scale(143.000000 22.027689)"><ellipse fill="#444" fill-opacity=".501961" cx="0" cy="0" rx="1" ry="1" /></g><path d="M0 0h2760v4912H0z" fill="#000" /><g transform="translate(64.494801 204.424297) rotate(23.495772) scale(24.590898 50.473728)"><ellipse fill="#b5b5b5" fill-opacity=".501961" cx="0" cy="0" rx="1" ry="1" /></g><path d="M0 0h2760v4912H0z" fill="#cdcdcd" /></g></svg>