<svg xmlns="http://www.w3.org/2000/svg" viewBox="0 0 4912 2760"><filter id="b"><feGaussianBlur stdDeviation="12" /></filter><path d="M0 0h4912v2760H0z" fill="#313131" /><g filter="url(#b)" transform="scale(19.187500) translate(0.5 0.5)"><ellipse fill="#f0f0ef" fill-opacity=".501961" cx="134" cy="74" rx="68" ry="19" /><path fill="#eff0ef" fill-opacity=".501961" d="M138.368611 63.454459 147.339355 33.245202 175.59626 52.224365 215.599551 106.776419z" /><g transform="translate(113.993619 30.370490) rotate(250.266419) scale(81.720768 13.490806)"><ellipse fill="#080909" fill-opacity=".501961" cx="0" cy="0" rx="1" ry="1" /></g><g transform="translate(30.571181 33.244126) rotate(120.497789) scale(193.355512 51.963654)"><ellipse fill="#000" fill-opacity=".501961" cx="0" cy="0" rx="1" ry="1" /></g><g transform="translate(223.108932 8.105670) rotate(92.444116) scale(24.704743 102.345439)"><ellipse fill="#000" fill-opacity=".501961" cx="0" cy="0" rx="1" ry="1" /></g><path fill="#fff" fill-opacity=".501961" d="M125.525963 81.915426 88.371099 85.337447 68.930177 67.353395 91.221928 60.424456z" /><path d="M0 0h4912v2760H0z" fill="#181918" /><path fill="#212121" fill-opacity=".501961" d="M122 75 177 0 59 34z" /></g></svg>