<svg xmlns="http://www.w3.org/2000/svg" viewBox="0 0 4878 2731"><filter id="b"><feGaussianBlur stdDeviation="12" /></filter><path d="M0 0h4878v2731H0z" fill="#9f9f9f" /><g filter="url(#b)" transform="scale(19.054688) translate(0.5 0.5)"><ellipse fill="#000" fill-opacity=".501961" cx="103" cy="122" rx="255" ry="35" /><g transform="translate(138.037837 34.579244) rotate(90.098556) scale(41.711854 237.496265)"><ellipse fill="#fff" fill-opacity=".501961" cx="0" cy="0" rx="1" ry="1" /></g><g transform="translate(124.134292 0.000000) rotate(2.650295) scale(228.757210 71.458764)"><ellipse fill="#fff" fill-opacity=".501961" cx="0" cy="0" rx="1" ry="1" /></g><ellipse fill="#121212" fill-opacity=".501961" cx="73" cy="130" rx="255" ry="18" /><g transform="translate(15.005336 108.711799) rotate(112.399694) scale(25.263057 53.524438)"><ellipse fill="#252525" fill-opacity=".501961" cx="0" cy="0" rx="1" ry="1" /></g><ellipse fill="#818181" fill-opacity=".501961" cx="136" cy="89" rx="201" ry="4" /><g transform="translate(146.759219 40.767481) rotate(272.088466) scale(27.981024 94.916211)"><ellipse fill="#f7f7f7" fill-opacity=".501961" cx="0" cy="0" rx="1" ry="1" /></g><g transform="translate(10 23) rotate(4) scale(44 96)"><path d="M0 0h4878v2731H0z" fill="#d0d0d0" /></g></g></svg>