<svg xmlns="http://www.w3.org/2000/svg" viewBox="0 0 4128 2322"><filter id="b"><feGaussianBlur stdDeviation="12" /></filter><path d="M0 0h4128v2322H0z" fill="#767676" /><g filter="url(#b)" transform="scale(16.125000) translate(0.5 0.5)"><g transform="translate(97.003475 14.410532) rotate(355.322196) scale(139.549730 39.606359)"><ellipse fill="#000" fill-opacity=".501961" cx="0" cy="0" rx="1" ry="1" /></g><ellipse fill="#fff" fill-opacity=".501961" cx="205" cy="81" rx="193" ry="25" /><ellipse fill="#f6f6f6" fill-opacity=".501961" cx="243" cy="55" rx="80" ry="31" /><g transform="translate(103.730184 15.006428) rotate(84.543384) scale(24.667331 221.943229)"><ellipse fill="#000" fill-opacity=".501961" cx="0" cy="0" rx="1" ry="1" /></g><g transform="translate(159.874449 130.946258) rotate(360.865786) scale(77.371476 10.591070)"><ellipse fill="#eee" fill-opacity=".501961" cx="0" cy="0" rx="1" ry="1" /></g><g transform="translate(60.885125 142.616746) rotate(366.749757) scale(49.016286 11.282274)"><ellipse fill="#000" fill-opacity=".501961" cx="0" cy="0" rx="1" ry="1" /></g><g transform="translate(36.893478 92.202534) rotate(64.206839) scale(31.638412 48.021753)"><ellipse fill="#cdcdcd" fill-opacity=".501961" cx="0" cy="0" rx="1" ry="1" /></g><ellipse fill="#181818" fill-opacity=".501961" cx="101" cy="39" rx="62" ry="29" /></g></svg>