<svg xmlns="http://www.w3.org/2000/svg" viewBox="0 0 3920 2204"><filter id="b"><feGaussianBlur stdDeviation="12" /></filter><path d="M0 0h3920v2204H0z" fill="#9d9d9d" /><g filter="url(#b)" transform="scale(15.312500) translate(0.5 0.5)"><g transform="translate(104.930821 142.000000) rotate(1.765773) scale(212.140710 29.571623)"><ellipse fill="#000" fill-opacity=".501961" cx="0" cy="0" rx="1" ry="1" /></g><ellipse fill="#fff" fill-opacity=".501961" cx="133" cy="20" rx="198" ry="31" /><g transform="translate(89.451631 129.427768) rotate(123.196391) scale(14.014010 114.221572)"><ellipse fill="#000" fill-opacity=".501961" cx="0" cy="0" rx="1" ry="1" /></g><ellipse fill="#000" fill-opacity=".501961" cx="59" cy="142" rx="217" ry="28" /><g transform="translate(135.246534 72.780661) rotate(186.685827) scale(61.445415 13.598352)"><ellipse fill="#262626" fill-opacity=".501961" cx="0" cy="0" rx="1" ry="1" /></g><g transform="translate(181.537786 102.882870) rotate(92.583999) scale(17.612154 92.044234)"><ellipse fill="#f4f4f4" fill-opacity=".501961" cx="0" cy="0" rx="1" ry="1" /></g><ellipse fill="#fff" fill-opacity=".501961" cx="122" cy="16" rx="255" ry="32" /><ellipse fill="#000" fill-opacity=".501961" cx="55" cy="127" rx="26" ry="35" /></g></svg>