<svg xmlns="http://www.w3.org/2000/svg" viewBox="0 0 4912 2760"><filter id="b"><feGaussianBlur stdDeviation="12" /></filter><path d="M0 0h4912v2760H0z" fill="#949494" /><g filter="url(#b)" transform="scale(19.187500) translate(0.5 0.5)"><g transform="translate(201.097857 15.773280) rotate(216.894756) scale(232.400141 43.720282)"><ellipse fill="#000" fill-opacity=".501961" cx="0" cy="0" rx="1" ry="1" /></g><g transform="translate(88.888144 39.952406) rotate(160.366365) scale(40.294908 102.772720)"><ellipse fill="#ececec" fill-opacity=".501961" cx="0" cy="0" rx="1" ry="1" /></g><g transform="translate(203.309948 130.712142) rotate(242.695859) scale(59.293544 44.389284)"><ellipse fill="#f0f0f0" fill-opacity=".501961" cx="0" cy="0" rx="1" ry="1" /></g><g transform="translate(21.441472 70.918351) rotate(37.440917) scale(20.061751 46.375532)"><ellipse fill="#fff" fill-opacity=".501961" cx="0" cy="0" rx="1" ry="1" /></g><path fill="#1a1a1a" fill-opacity=".501961" d="M-9 158l6-44L89 67z" /><g transform="translate(165.924763 59.513323) rotate(211.037012) scale(50.815635 8.941669)"><ellipse fill="#fff" fill-opacity=".501961" cx="0" cy="0" rx="1" ry="1" /></g><path fill="#000" fill-opacity=".501961" d="M30.592086 37.806577-.219303 10.91275 7.904243-8.958731 24.317753 3.199364z" /><path fill="#000" fill-opacity=".501961" d="M168 88l-2-22-51-2z" /></g></svg>