<svg xmlns="http://www.w3.org/2000/svg" viewBox="0 0 4912 2760"><filter id="b"><feGaussianBlur stdDeviation="12" /></filter><path d="M0 0h4912v2760H0z" fill="#848484" /><g filter="url(#b)" transform="scale(19.187500) translate(0.5 0.5)"><g transform="translate(103.899632 25.600526) rotate(348.755211) scale(155.276113 54.092810)"><ellipse fill="#fff" fill-opacity=".501961" cx="0" cy="0" rx="1" ry="1" /></g><g transform="translate(179.008470 112.969505) rotate(85.320815) scale(41.648191 230.895108)"><ellipse fill="#000" fill-opacity=".501961" cx="0" cy="0" rx="1" ry="1" /></g><ellipse fill="#fff" fill-opacity=".501961" cx="105" cy="19" rx="67" ry="67" /><g transform="translate(201.736683 91.332763) rotate(314.565814) scale(89.132178 29.501368)"><ellipse fill="#000" fill-opacity=".501961" cx="0" cy="0" rx="1" ry="1" /></g><ellipse fill="#fff" fill-opacity=".501961" cx="32" cy="21" rx="190" ry="65" /><ellipse fill="#000" fill-opacity=".501961" cx="100" cy="115" rx="229" ry="31" /><ellipse fill="#5b5b5b" fill-opacity=".501961" cx="170" cy="89" rx="103" ry="9" /><g transform="translate(236.330535 58.636966) rotate(263.493495) scale(18.100948 49.670249)"><ellipse fill="#000" fill-opacity=".501961" cx="0" cy="0" rx="1" ry="1" /></g></g></svg>