<svg xmlns="http://www.w3.org/2000/svg" viewBox="0 0 11280 1584"><filter id="b"><feGaussianBlur stdDeviation="12" /></filter><path d="M0 0h11280v1584H0z" fill="#86898b" /><g filter="url(#b)" transform="scale(44.062500) translate(0.5 0.5)"><ellipse fill="#ece1c0" fill-opacity=".501961" cx="78" cy="0" rx="29" ry="20" /><g transform="translate(23.889318 17.563631) rotate(179.873048) scale(24.864513 90.716699)"><ellipse fill="#4b524b" fill-opacity=".501961" cx="0" cy="0" rx="1" ry="1" /></g><ellipse fill="#beb9bb" fill-opacity=".501961" cx="168" cy="25" rx="53" ry="12" /><path d="M0 0h11280v1584H0z" fill="red" /><path fill="#b9bfcd" fill-opacity=".501961" d="M28.661286 24.396396 10.723519.827188 7.110062 20.588753 40.292703 5.464805z" /><g transform="translate(74.253097 34.000000) rotate(169.763287) scale(30.692747 13.630798)"><ellipse fill="#32578b" fill-opacity=".501961" cx="0" cy="0" rx="1" ry="1" /></g><path fill="#dddde5" fill-opacity=".501961" d="M255.884314 23.780007 218.024521 19.701851 244.664585 34.548152 271 5.501273z" /><path fill="#020c1b" fill-opacity=".501961" d="M271 2.069974 226.953469-8.178686 223.514536 11.056805 235.161167 4.299263z" /></g></svg>