<svg xmlns="http://www.w3.org/2000/svg" viewBox="0 0 9856 1392"><filter id="b"><feGaussianBlur stdDeviation="12" /></filter><path d="M0 0h9856v1392H0z" fill="#8b8a88" /><g filter="url(#b)" transform="scale(38.500000) translate(0.5 0.5)"><g transform="translate(167.495276 18.885186) rotate(266.400666) scale(77.220915 22.721328)"><ellipse fill="#1e3544" fill-opacity=".501961" cx="0" cy="0" rx="1" ry="1" /></g><ellipse fill="#bab7ad" fill-opacity=".501961" cx="51" cy="32" rx="95" ry="33" /><path d="M0 0h9856v1392H0z" fill="#000" /><path d="M0 0h9856v1392H0z" fill="#d5ecff" /><path d="M0 0h9856v1392H0z" fill="#464b51" /><path d="M0 0h9856v1392H0z" fill="#ffb3a9" /><g transform="translate(161 0) rotate(271) scale(20 21)"><path d="M0 0h9856v1392H0z" fill="#8dd2ff" /></g><g transform="translate(88.742946 0.000000) rotate(303.688062) scale(14.149676 3.942239)"><ellipse fill="#000" fill-opacity=".501961" cx="0" cy="0" rx="1" ry="1" /></g></g></svg>