<svg xmlns="http://www.w3.org/2000/svg" viewBox="0 0 4979 752"><filter id="b"><feGaussianBlur stdDeviation="12" /></filter><path d="M0 0h4979v752H0z" fill="#786b77" /><g filter="url(#b)" transform="scale(19.449219) translate(0.5 0.5)"><g transform="translate(220.794033 11.229251) rotate(238.218696) scale(30.818462 82.155579)"><ellipse fill="#00466d" fill-opacity=".501961" cx="0" cy="0" rx="1" ry="1" /></g><ellipse fill="#e8655e" fill-opacity=".501961" cx="31" cy="17" rx="78" ry="37" /><ellipse fill="#64b3ca" fill-opacity=".501961" cx="148" cy="15" rx="37" ry="36" /><g transform="translate(32.239515 18.600946) rotate(184.425717) scale(13.026651 23.920418)"><ellipse fill="#5bc8e9" fill-opacity=".501961" cx="0" cy="0" rx="1" ry="1" /></g><g transform="translate(203.688176 21.833816) rotate(178.590248) scale(18.281667 70.939312)"><ellipse fill="#4a2600" fill-opacity=".501961" cx="0" cy="0" rx="1" ry="1" /></g><g transform="translate(82.793211 6.858870) rotate(283.499729) scale(44.168961 7.470646)"><ellipse fill="#28ace8" fill-opacity=".501961" cx="0" cy="0" rx="1" ry="1" /></g><g transform="translate(0 37) rotate(83) scale(67 37)"><path d="M0 0h4979v752H0z" fill="#ff1700" /></g><path d="M0 0h4979v752H0z" fill="#000" /></g></svg>