<svg xmlns="http://www.w3.org/2000/svg" viewBox="0 0 7488 1056"><filter id="b"><feGaussianBlur stdDeviation="12" /></filter><path d="M0 0h7488v1056H0z" fill="#84877d" /><g filter="url(#b)" transform="scale(29.250000) translate(0.5 0.5)"><g transform="translate(225.078949 0.000000) rotate(255.074723) scale(105.142702 36.281661)"><ellipse fill="#341b16" fill-opacity=".501961" cx="0" cy="0" rx="1" ry="1" /></g><ellipse fill="#e0dfa1" fill-opacity=".501961" cx="36" cy="11" rx="35" ry="35" /><ellipse fill="#b9c4c9" fill-opacity=".501961" cx="107" cy="32" rx="56" ry="14" /><g transform="translate(38.512644 35.000000) rotate(0.825176) scale(8.219187 67.230394)"><ellipse fill="#c7b312" fill-opacity=".501961" cx="0" cy="0" rx="1" ry="1" /></g><g transform="translate(223.625295 35.000000) rotate(37.821821) scale(28.504272 12.208518)"><ellipse fill="#0e1519" fill-opacity=".501961" cx="0" cy="0" rx="1" ry="1" /></g><g transform="translate(62 14) rotate(101) scale(62 14)"><path d="M0 0h7488v1056H0z" fill="#dce1f6" /></g><g transform="translate(243.748246 12.289873) rotate(11.193616) scale(25.037974 15.321787)"><ellipse fill="#977462" fill-opacity=".501961" cx="0" cy="0" rx="1" ry="1" /></g><path d="M0 0h7488v1056H0z" fill="#4d5b5e" /></g></svg>