<svg xmlns="http://www.w3.org/2000/svg" viewBox="0 0 6614 752"><filter id="b"><feGaussianBlur stdDeviation="12" /></filter><path d="M0 0h6614v752H0z" fill="#818897" /><g filter="url(#b)" transform="scale(25.835938) translate(0.5 0.5)"><g transform="translate(241.345944 14.185953) rotate(286.684287) scale(62.544967 18.012668)"><ellipse fill="#cb0000" fill-opacity=".501961" cx="0" cy="0" rx="1" ry="1" /></g><g transform="translate(47.834426 12.583243) rotate(69.538449) scale(31.624584 52.538216)"><ellipse fill="#fefce3" fill-opacity=".501961" cx="0" cy="0" rx="1" ry="1" /></g><g transform="translate(155.396034 13.059940) rotate(101.133124) scale(23.714247 58.867885)"><ellipse fill="#036aa1" fill-opacity=".501961" cx="0" cy="0" rx="1" ry="1" /></g><g transform="translate(242.828331 11.029985) rotate(111.239486) scale(32.000178 20.157246)"><ellipse fill="#a30000" fill-opacity=".501961" cx="0" cy="0" rx="1" ry="1" /></g><path fill="#3a423b" fill-opacity=".501961" d="M28.135715 21.619681 30.562751-16 19.989845 10.754099 18.697018 18.129888z" /><path fill="#e4eae8" fill-opacity=".501961" d="M118.569073 19.550935 134.250794 11.030299 132.402114 21.167308 38.17706 44z" /><ellipse fill="#000" fill-opacity=".501961" cx="169" cy="12" rx="4" ry="28" /><ellipse fill="#eeede8" fill-opacity=".501961" cx="61" cy="9" rx="36" ry="11" /></g></svg>