<svg xmlns="http://www.w3.org/2000/svg" viewBox="0 0 7488 960"><filter id="b"><feGaussianBlur stdDeviation="12" /></filter><path d="M0 0h7488v960H0z" fill="#8ba59a" /><g filter="url(#b)" transform="scale(29.250000) translate(0.5 0.5)"><g transform="translate(233.954752 4.333516) rotate(68.730092) scale(41.911859 26.248396)"><ellipse fill="#fff" fill-opacity=".501961" cx="0" cy="0" rx="1" ry="1" /></g><g transform="translate(25.519984 22.678529) rotate(272.555678) scale(50.244623 28.658899)"><ellipse fill="#48343e" fill-opacity=".501961" cx="0" cy="0" rx="1" ry="1" /></g><ellipse fill="#fff" fill-opacity=".501961" cx="86" cy="2" rx="32" ry="19" /><g transform="translate(149.498067 26.394181) rotate(170.644714) scale(43.661054 20.922181)"><ellipse fill="#2b725c" fill-opacity=".501961" cx="0" cy="0" rx="1" ry="1" /></g><path fill="#30785a" fill-opacity=".501961" d="M74.453642 47 183.074608 30.826481 85.665412 23.086336 72.052167-16z" /><path d="M0 0h7488v960H0z" fill="#ffeee5" /><g transform="translate(122.470385 11.969635) rotate(262.726388) scale(32.980527 6.494424)"><ellipse fill="#41353b" fill-opacity=".501961" cx="0" cy="0" rx="1" ry="1" /></g><g transform="translate(98 4) rotate(87) scale(23 31)"><path d="M0 0h7488v960H0z" fill="#fff" /></g></g></svg>